<svg width="1362" height="809" viewBox="0 0 1362 809" fill="none" xmlns="http://www.w3.org/2000/svg">
<g filter="url(#filter0_dddddd_425_232)">
<rect x="250" y="250" width="862" height="309" rx="16" fill="#5D2942"/>
<rect x="251" y="251" width="860" height="307" rx="15" stroke="url(#paint0_linear_425_232)" stroke-width="2"/>
<path d="M451.795 329.88L450.895 328.8H475.615C477.895 328.8 479.915 329.22 481.675 330.06C483.435 330.9 484.835 331.94 485.875 333.18C486.955 334.38 487.615 335.52 487.855 336.6C488.095 337.68 488.215 338.62 488.215 339.42C488.215 342.42 487.375 344.62 485.695 346.02C484.055 347.38 482.655 348.36 481.495 348.96C480.335 349.52 478.335 350.4 475.495 351.6L474.055 352.2C473.735 352.32 473.455 352.44 473.215 352.56C473.015 352.68 472.275 353.2 470.995 354.12C469.715 355 468.955 356.36 468.715 358.2L469.375 358.08C469.695 358.04 469.975 358.02 470.215 358.02C470.495 357.98 470.775 357.96 471.055 357.96C472.015 357.96 472.695 358.12 473.095 358.44C473.535 358.76 473.855 359.32 474.055 360.12C474.175 360.84 473.935 361.68 473.335 362.64C472.735 363.56 471.795 364.02 470.515 364.02C469.835 364.02 469.115 363.86 468.355 363.54C467.595 363.22 466.975 362.72 466.495 362.04C466.055 361.32 465.775 360.62 465.655 359.94C465.575 359.26 465.535 358.74 465.535 358.38C465.535 357.62 465.635 356.88 465.835 356.16C466.075 355.4 466.415 354.58 466.855 353.7C467.335 352.78 467.955 351.98 468.715 351.3C469.515 350.58 470.635 349.72 472.075 348.72C473.555 347.68 474.735 346.56 475.615 345.36C476.495 344.12 476.935 342.56 476.935 340.68C476.935 340.08 476.915 339.62 476.875 339.3C476.835 338.98 476.675 338.44 476.395 337.68C476.155 336.88 475.475 335.7 474.355 334.14C473.275 332.58 471.095 331.8 467.815 331.8C467.095 331.8 466.535 331.82 466.135 331.86L464.275 332.16V365.58L464.395 366.84C464.675 368.16 465.075 369.22 465.595 370.02C466.115 370.82 466.815 371.48 467.695 372H450.895C452.615 370.36 453.475 368.26 453.475 365.7V334.8C453.475 333.04 452.915 331.4 451.795 329.88ZM490.648 344.64L489.508 343.44L492.448 342.54L495.448 341.58L498.508 340.62L501.568 339.6V345.3L502.468 344.04C503.628 342.56 504.608 341.56 505.408 341.04C506.248 340.48 506.988 340.16 507.628 340.08C508.308 339.96 508.848 339.9 509.248 339.9C510.888 339.9 512.188 340.44 513.148 341.52C514.148 342.56 514.648 343.96 514.648 345.72C514.648 347.28 514.248 348.5 513.448 349.38C512.648 350.22 511.588 350.64 510.268 350.64C509.348 350.64 508.368 350.42 507.328 349.98C506.288 349.5 505.428 348.88 504.748 348.12C504.228 348.04 503.688 348.18 503.128 348.54C502.568 348.9 502.048 349.3 501.568 349.74V368.28C501.568 369.36 501.868 370.2 502.468 370.8C503.068 371.4 503.548 371.8 503.908 372H489.508L490.348 371.1C491.188 369.94 491.608 368.88 491.608 367.92V347.52C491.608 346.48 491.288 345.52 490.648 344.64ZM521.545 337.14C519.865 337.14 518.445 336.68 517.285 335.76C516.165 334.8 515.605 333.6 515.605 332.16C515.605 330.56 516.105 329.24 517.105 328.2C518.105 327.16 519.505 326.64 521.305 326.64C523.185 326.64 524.605 327.12 525.565 328.08C526.565 329 527.065 330.32 527.065 332.04C527.065 333.48 526.545 334.7 525.505 335.7C524.505 336.66 523.185 337.14 521.545 337.14ZM528.865 372H514.645L515.545 370.98C516.385 369.82 516.805 368.64 516.805 367.44V346.38C516.805 344.7 516.105 343.44 514.705 342.6C516.425 342.6 518.385 342.28 520.585 341.64C522.785 340.96 524.825 340.28 526.705 339.6V367.5C526.705 368.18 526.945 368.98 527.425 369.9C527.945 370.82 528.245 371.36 528.325 371.52C528.445 371.64 528.625 371.8 528.865 372ZM548.104 372H528.364C529.284 370.88 530.024 369.92 530.584 369.12C531.184 368.32 531.804 367.5 532.444 366.66C533.084 365.78 533.644 365 534.124 364.32C534.644 363.64 535.184 362.82 535.744 361.86L547.504 343.86C546.064 344.1 544.644 344.52 543.244 345.12C541.844 345.68 540.564 346.36 539.404 347.16C538.244 347.92 537.204 348.54 536.284 349.02C535.404 349.5 534.524 349.74 533.644 349.74C533.444 349.74 533.024 349.7 532.384 349.62C533.024 348.3 533.604 346.76 534.124 345C534.644 343.24 535.124 341.56 535.564 339.96C537.124 340.56 538.564 340.94 539.884 341.1C541.204 341.26 543.744 341.34 547.504 341.34H560.704L542.524 369.72C544.244 369.72 545.844 369.44 547.324 368.88C548.844 368.28 550.584 367.4 552.544 366.24C554.544 365.08 555.744 364.44 556.144 364.32C556.584 364.2 557.124 364.1 557.764 364.02C558.444 364.02 558.984 364.06 559.384 364.14C559.784 364.18 560.264 364.32 560.824 364.56C559.744 366 558.744 367.52 557.824 369.12L555.604 373.38C554.524 372.78 553.564 372.4 552.724 372.24C551.884 372.08 550.344 372 548.104 372ZM589.766 349.92C590.126 351.08 590.306 352.28 590.306 353.52C590.306 354.36 590.206 355.28 590.006 356.28H572.606L573.206 358.38C574.246 361.18 575.926 363.42 578.246 365.1C580.606 366.74 583.246 367.56 586.166 367.56C587.566 367.56 588.926 367.36 590.246 366.96L591.866 366.42C591.466 367.34 590.926 368.2 590.246 369C589.606 369.76 588.826 370.42 587.906 370.98C587.026 371.5 585.746 371.98 584.066 372.42C582.426 372.9 580.846 373.14 579.326 373.14C577.806 373.14 576.006 372.86 573.926 372.3C571.886 371.74 570.046 370.82 568.406 369.54C566.766 368.26 565.526 366.9 564.686 365.46C563.846 364.02 563.266 362.4 562.946 360.6C562.666 358.8 562.526 357.42 562.526 356.46C562.526 355.02 562.786 353.32 563.306 351.36C563.826 349.36 564.706 347.52 565.946 345.84C567.226 344.16 568.666 342.9 570.266 342.06C571.906 341.18 573.366 340.66 574.646 340.5C575.926 340.3 576.966 340.2 577.766 340.2C579.686 340.2 581.526 340.68 583.286 341.64C585.086 342.6 586.486 343.76 587.486 345.12C588.486 346.48 589.246 348.08 589.766 349.92ZM579.686 352.92L579.746 351.72C579.746 350.84 579.586 349.66 579.266 348.18C578.986 346.66 578.386 345.64 577.466 345.12C576.546 344.6 575.906 344.3 575.546 344.22C575.226 344.14 574.946 344.1 574.706 344.1C573.186 344.1 572.226 344.72 571.826 345.96C571.466 347.2 571.286 348.42 571.286 349.62C571.286 349.94 571.326 350.58 571.406 351.54L571.586 352.92H579.686ZM611.404 329.88L610.504 328.8H635.224C637.504 328.8 639.524 329.22 641.284 330.06C643.044 330.9 644.444 331.94 645.484 333.18C646.564 334.38 647.224 335.52 647.464 336.6C647.704 337.68 647.824 338.62 647.824 339.42C647.824 342.42 646.984 344.62 645.304 346.02C643.664 347.38 642.264 348.36 641.104 348.96C639.944 349.52 637.944 350.4 635.104 351.6L633.664 352.2C633.344 352.32 633.064 352.44 632.824 352.56C632.624 352.68 631.884 353.2 630.604 354.12C629.324 355 628.564 356.36 628.324 358.2L628.984 358.08C629.304 358.04 629.584 358.02 629.824 358.02C630.104 357.98 630.384 357.96 630.664 357.96C631.624 357.96 632.304 358.12 632.704 358.44C633.144 358.76 633.464 359.32 633.664 360.12C633.784 360.84 633.544 361.68 632.944 362.64C632.344 363.56 631.404 364.02 630.124 364.02C629.444 364.02 628.724 363.86 627.964 363.54C627.204 363.22 626.584 362.72 626.104 362.04C625.664 361.32 625.384 360.62 625.264 359.94C625.184 359.26 625.144 358.74 625.144 358.38C625.144 357.62 625.244 356.88 625.444 356.16C625.684 355.4 626.024 354.58 626.464 353.7C626.944 352.78 627.564 351.98 628.324 351.3C629.124 350.58 630.244 349.72 631.684 348.72C633.164 347.68 634.344 346.56 635.224 345.36C636.104 344.12 636.544 342.56 636.544 340.68C636.544 340.08 636.524 339.62 636.484 339.3C636.444 338.98 636.284 338.44 636.004 337.68C635.764 336.88 635.084 335.7 633.964 334.14C632.884 332.58 630.704 331.8 627.424 331.8C626.704 331.8 626.144 331.82 625.744 331.86L623.884 332.16V365.58L624.004 366.84C624.284 368.16 624.684 369.22 625.204 370.02C625.724 370.82 626.424 371.48 627.304 372H610.504C612.224 370.36 613.084 368.26 613.084 365.7V334.8C613.084 333.04 612.524 331.4 611.404 329.88ZM649.597 358.02V355.92L649.777 353.88C650.017 352.2 650.377 350.7 650.857 349.38C651.377 348.06 652.617 346.16 654.577 343.68C656.537 341.16 659.777 339.9 664.297 339.9C665.177 339.9 666.357 340.02 667.837 340.26C669.317 340.46 671.017 341.36 672.937 342.96C674.897 344.56 676.277 346.38 677.077 348.42C677.877 350.42 678.337 352.04 678.457 353.28C678.617 354.52 678.697 356.24 678.697 358.44C678.457 361.08 677.757 363.42 676.597 365.46C675.477 367.5 674.157 369.12 672.637 370.32C671.117 371.52 669.577 372.3 668.017 372.66C666.457 373.06 665.077 373.26 663.877 373.26C658.957 373.26 655.537 371.78 653.617 368.82C651.737 365.86 650.597 363.74 650.197 362.46C649.797 361.14 649.597 359.66 649.597 358.02ZM660.757 347.94V364.5C660.757 366.42 661.037 367.86 661.597 368.82C662.197 369.74 663.017 370.2 664.057 370.2C664.377 370.2 664.837 370.12 665.437 369.96C666.077 369.8 666.577 369.34 666.937 368.58C667.337 367.82 667.537 366.7 667.537 365.22V349.26L667.477 347.76C667.277 346.08 666.937 344.9 666.457 344.22C665.977 343.54 665.257 343.2 664.297 343.2C663.137 343.2 662.257 343.56 661.657 344.28C661.057 345 660.757 346.22 660.757 347.94ZM681.414 358.02V355.92L681.594 353.88C681.834 352.2 682.194 350.7 682.674 349.38C683.194 348.06 684.434 346.16 686.394 343.68C688.354 341.16 691.594 339.9 696.114 339.9C696.994 339.9 698.174 340.02 699.654 340.26C701.134 340.46 702.834 341.36 704.754 342.96C706.714 344.56 708.094 346.38 708.894 348.42C709.694 350.42 710.154 352.04 710.274 353.28C710.434 354.52 710.514 356.24 710.514 358.44C710.274 361.08 709.574 363.42 708.414 365.46C707.294 367.5 705.974 369.12 704.454 370.32C702.934 371.52 701.394 372.3 699.834 372.66C698.274 373.06 696.894 373.26 695.694 373.26C690.774 373.26 687.354 371.78 685.434 368.82C683.554 365.86 682.414 363.74 682.014 362.46C681.614 361.14 681.414 359.66 681.414 358.02ZM692.574 347.94V364.5C692.574 366.42 692.854 367.86 693.414 368.82C694.014 369.74 694.834 370.2 695.874 370.2C696.194 370.2 696.654 370.12 697.254 369.96C697.894 369.8 698.394 369.34 698.754 368.58C699.154 367.82 699.354 366.7 699.354 365.22V349.26L699.294 347.76C699.094 346.08 698.754 344.9 698.274 344.22C697.794 343.54 697.074 343.2 696.114 343.2C694.954 343.2 694.074 343.56 693.474 344.28C692.874 345 692.574 346.22 692.574 347.94ZM727.03 372H712.75C713.51 371.2 714.05 370.26 714.37 369.18C714.73 368.1 714.91 366.68 714.91 364.92V333.84C714.91 331.76 714.21 330.36 712.81 329.64C716.01 329.64 719.13 329.06 722.17 327.9L724.87 326.64V366.72C724.87 369.08 725.59 370.84 727.03 372ZM745.19 329.82L744.41 328.8H759.89C759.25 329.8 758.93 330.92 758.93 332.16C758.93 332.52 758.95 332.8 758.99 333C758.99 333.48 759.11 334.08 759.35 334.8L767.15 357.3L777.17 328.5L789.65 357.18L792.95 347.28C793.43 345.92 793.91 343.9 794.39 341.22C794.91 338.54 795.17 336.34 795.17 334.62C795.17 333.18 794.95 332.04 794.51 331.2C794.11 330.32 793.43 329.52 792.47 328.8H806.69C806.25 329.2 805.83 329.62 805.43 330.06C805.07 330.46 804.51 331.14 803.75 332.1C803.03 333.06 802.11 334.74 800.99 337.14C799.91 339.54 798.45 343.3 796.61 348.42L795.83 351.06L792.41 362.94L792.83 363.72C793.67 365.24 794.41 366.38 795.05 367.14C795.69 367.9 796.49 368.54 797.45 369.06L796.13 369.36L793.31 369.96C791.03 370.44 789.39 370.84 788.39 371.16C787.43 371.44 786.17 371.92 784.61 372.6L774.65 349.62L769.49 363.24L769.91 364.44C770.39 365.48 770.97 366.42 771.65 367.26C772.33 368.1 773.11 368.8 773.99 369.36C771.79 369.92 769.61 370.54 767.45 371.22C765.33 371.86 763.25 372.52 761.21 373.2L748.07 335.22C747.47 333.5 746.51 331.7 745.19 329.82ZM807.156 358.02V355.92L807.336 353.88C807.576 352.2 807.936 350.7 808.416 349.38C808.936 348.06 810.176 346.16 812.136 343.68C814.096 341.16 817.336 339.9 821.856 339.9C822.736 339.9 823.916 340.02 825.396 340.26C826.876 340.46 828.576 341.36 830.496 342.96C832.456 344.56 833.836 346.38 834.636 348.42C835.436 350.42 835.896 352.04 836.016 353.28C836.176 354.52 836.256 356.24 836.256 358.44C836.016 361.08 835.316 363.42 834.156 365.46C833.036 367.5 831.716 369.12 830.196 370.32C828.676 371.52 827.136 372.3 825.576 372.66C824.016 373.06 822.636 373.26 821.436 373.26C816.516 373.26 813.096 371.78 811.176 368.82C809.296 365.86 808.156 363.74 807.756 362.46C807.356 361.14 807.156 359.66 807.156 358.02ZM818.316 347.94V364.5C818.316 366.42 818.596 367.86 819.156 368.82C819.756 369.74 820.576 370.2 821.616 370.2C821.936 370.2 822.396 370.12 822.996 369.96C823.636 369.8 824.136 369.34 824.496 368.58C824.896 367.82 825.096 366.7 825.096 365.22V349.26L825.036 347.76C824.836 346.08 824.496 344.9 824.016 344.22C823.536 343.54 822.816 343.2 821.856 343.2C820.696 343.2 819.816 343.56 819.216 344.28C818.616 345 818.316 346.22 818.316 347.94ZM839.632 344.64L838.492 343.44L841.432 342.54L844.432 341.58L847.492 340.62L850.552 339.6V345.3L851.452 344.04C852.612 342.56 853.592 341.56 854.392 341.04C855.232 340.48 855.972 340.16 856.612 340.08C857.292 339.96 857.832 339.9 858.232 339.9C859.872 339.9 861.172 340.44 862.132 341.52C863.132 342.56 863.632 343.96 863.632 345.72C863.632 347.28 863.232 348.5 862.432 349.38C861.632 350.22 860.572 350.64 859.252 350.64C858.332 350.64 857.352 350.42 856.312 349.98C855.272 349.5 854.412 348.88 853.732 348.12C853.212 348.04 852.672 348.18 852.112 348.54C851.552 348.9 851.032 349.3 850.552 349.74V368.28C850.552 369.36 850.852 370.2 851.452 370.8C852.052 371.4 852.532 371.8 852.892 372H838.492L839.332 371.1C840.172 369.94 840.592 368.88 840.592 367.92V347.52C840.592 346.48 840.272 345.52 839.632 344.64ZM865.789 345.24H862.549C866.189 342.52 869.469 339.74 872.389 336.9L875.689 333.6V341.34H880.909V345.24H875.689V365.7C875.689 367.38 876.669 368.22 878.629 368.22C879.069 368.22 879.529 368.16 880.009 368.04L881.569 367.5L882.349 367.08C882.069 368.24 881.549 369.26 880.789 370.14C880.029 371.02 879.129 371.7 878.089 372.18C877.089 372.66 876.409 372.94 876.049 373.02C875.689 373.14 875.309 373.2 874.909 373.2C874.629 373.2 874.309 373.22 873.949 373.26C873.629 373.3 873.389 373.32 873.229 373.32C868.989 373.32 866.529 371.32 865.849 367.32L865.789 366.06V345.24ZM896.54 372H882.32L883.1 371.1C883.5 370.54 883.82 369.92 884.06 369.24C884.3 368.56 884.42 367.98 884.42 367.5V333.06C884.42 332.42 884.24 331.8 883.88 331.2C883.52 330.56 883.04 330.04 882.44 329.64C884.4 329.64 886.32 329.38 888.2 328.86C890.12 328.34 892.18 327.6 894.38 326.64V343.32C895.06 342.6 895.76 342.04 896.48 341.64C897.24 341.24 898.2 340.92 899.36 340.68C900.52 340.44 901.46 340.32 902.18 340.32C904.5 340.32 906.36 340.96 907.76 342.24C909.2 343.48 909.92 345.04 909.92 346.92V366.72C909.92 368.92 910.64 370.68 912.08 372H898.46C899.46 370.88 899.96 369.34 899.96 367.38V347.94C899.96 347.3 899.68 346.76 899.12 346.32C898.6 345.84 897.94 345.6 897.14 345.6C896.86 345.6 896.32 345.7 895.52 345.9C894.76 346.1 894.38 346.82 894.38 348.06V366.9C894.38 368.98 895.1 370.68 896.54 372Z" fill="url(#paint1_linear_425_232)"/>
<path d="M438.804 478H385.492L391.988 472.064C403.636 461.237 411.812 451.979 416.516 444.288C421.22 436.523 423.572 429.056 423.572 421.888C423.572 416.288 422.751 412.181 421.108 409.568C419.466 406.88 417.3 405.536 414.612 405.536C412.596 405.536 410.879 406.133 409.46 407.328C408.042 408.448 407.22 409.531 406.996 410.576C406.847 411.547 406.772 412.443 406.772 413.264C406.772 413.861 406.847 414.645 406.996 415.616C407.22 416.587 407.444 417.669 407.668 418.864C407.967 419.984 408.116 420.805 408.116 421.328C408.116 422.075 407.93 423.083 407.556 424.352L406.884 426.032C404.644 429.915 401.732 431.856 398.148 431.856C396.804 431.856 394.527 431.333 391.316 430.288C388.18 429.243 386.612 425.883 386.612 420.208C386.612 419.163 386.874 417.259 387.396 414.496C387.919 411.733 389.898 409.195 393.332 406.88C396.767 404.565 399.791 402.96 402.404 402.064C405.018 401.168 408.042 400.72 411.476 400.72C422.378 400.72 430.74 402.736 436.564 406.768C442.463 410.8 445.412 416.475 445.412 423.792C445.412 427.451 444.74 430.736 443.396 433.648C442.127 436.485 439.962 439.36 436.9 442.272L433.54 445.072L412.26 460.864L434.1 460.752C435.071 460.752 436.303 460.565 437.796 460.192C439.29 459.744 441.231 459.035 443.62 458.064L445.972 456.832C443.434 462.283 441.418 467.845 439.924 473.52L438.804 478ZM454.659 440.704L454.771 436.448C454.771 433.835 454.883 431.707 455.107 430.064C455.406 428.421 456.078 426.032 457.123 422.896C458.169 419.76 459.177 417.259 460.147 415.392C461.118 413.451 463.619 410.277 467.651 405.872C471.683 401.467 477.507 399.264 485.123 399.264C486.094 399.264 486.915 399.301 487.587 399.376C488.259 399.451 490.201 399.787 493.411 400.384C496.622 400.907 500.019 402.773 503.603 405.984C507.262 409.12 509.95 412.891 511.667 417.296C513.385 421.627 514.505 425.024 515.027 427.488C515.55 429.952 515.811 432.752 515.811 435.888C515.811 444.251 514.878 451.307 513.011 457.056C511.145 462.731 507.71 467.883 502.707 472.512C497.779 477.067 492.03 479.344 485.459 479.344C480.307 479.344 475.678 478 471.571 475.312C467.465 472.549 464.403 469.824 462.387 467.136C460.446 464.373 458.878 461.312 457.683 457.952C456.489 454.517 455.667 451.605 455.219 449.216C454.846 446.827 454.659 443.989 454.659 440.704ZM463.059 425.136C462.985 425.584 462.947 426.256 462.947 427.152C462.947 429.392 463.395 431.781 464.291 434.32C465.262 436.859 466.718 439.659 468.659 442.72C470.675 445.781 473.065 448.843 475.827 451.904C478.59 454.965 481.166 457.355 483.555 459.072C486.019 460.789 488.409 461.984 490.723 462.656C493.113 463.253 495.054 463.552 496.547 463.552C500.206 463.552 503.081 462.32 505.171 459.856C507.262 457.392 508.307 454.107 508.307 450C508.307 447.237 507.822 444.736 506.851 442.496C505.955 440.256 504.313 437.381 501.923 433.872C499.609 430.288 497.331 427.339 495.091 425.024C492.926 422.635 489.939 420.133 486.131 417.52C482.323 414.832 478.366 413.488 474.259 413.488C469.182 413.488 466.083 415.093 464.963 418.304C463.843 421.515 463.209 423.792 463.059 425.136ZM523.261 471.504C523.037 470.608 522.925 469.637 522.925 468.592C522.925 468.219 523.224 466.539 523.821 463.552C524.419 460.491 527.891 458.96 534.237 458.96C537.299 458.96 539.725 460.005 541.517 462.096C543.384 464.112 544.317 466.837 544.317 470.272C544.317 473.184 543.832 475.797 542.861 478.112C541.891 480.427 541.107 482.069 540.509 483.04C539.912 484.085 539.24 485.131 538.493 486.176L535.581 489.648L530.989 493.904C529.571 495.248 528.189 495.92 526.845 495.92C525.875 495.92 525.24 495.621 524.941 495.024C524.717 494.427 524.531 493.941 524.381 493.568C524.381 493.195 524.829 492.448 525.725 491.328C526.696 490.208 527.704 489.013 528.749 487.744C529.795 486.549 530.317 485.056 530.317 483.264C530.317 481.696 529.757 480.128 528.637 478.56L525.389 475.424C524.493 474.528 523.784 473.221 523.261 471.504ZM551.894 440.704L552.006 436.448C552.006 433.835 552.118 431.707 552.342 430.064C552.64 428.421 553.312 426.032 554.358 422.896C555.403 419.76 556.411 417.259 557.382 415.392C558.352 413.451 560.854 410.277 564.886 405.872C568.918 401.467 574.742 399.264 582.358 399.264C583.328 399.264 584.15 399.301 584.822 399.376C585.494 399.451 587.435 399.787 590.646 400.384C593.856 400.907 597.254 402.773 600.838 405.984C604.496 409.12 607.184 412.891 608.902 417.296C610.619 421.627 611.739 425.024 612.262 427.488C612.784 429.952 613.046 432.752 613.046 435.888C613.046 444.251 612.112 451.307 610.246 457.056C608.379 462.731 604.944 467.883 599.942 472.512C595.014 477.067 589.264 479.344 582.694 479.344C577.542 479.344 572.912 478 568.806 475.312C564.699 472.549 561.638 469.824 559.622 467.136C557.68 464.373 556.112 461.312 554.918 457.952C553.723 454.517 552.902 451.605 552.454 449.216C552.08 446.827 551.894 443.989 551.894 440.704ZM560.294 425.136C560.219 425.584 560.182 426.256 560.182 427.152C560.182 429.392 560.63 431.781 561.526 434.32C562.496 436.859 563.952 439.659 565.894 442.72C567.91 445.781 570.299 448.843 573.062 451.904C575.824 454.965 578.4 457.355 580.79 459.072C583.254 460.789 585.643 461.984 587.958 462.656C590.347 463.253 592.288 463.552 593.782 463.552C597.44 463.552 600.315 462.32 602.406 459.856C604.496 457.392 605.542 454.107 605.542 450C605.542 447.237 605.056 444.736 604.086 442.496C603.19 440.256 601.547 437.381 599.158 433.872C596.843 430.288 594.566 427.339 592.326 425.024C590.16 422.635 587.174 420.133 583.366 417.52C579.558 414.832 575.6 413.488 571.494 413.488C566.416 413.488 563.318 415.093 562.198 418.304C561.078 421.515 560.443 423.792 560.294 425.136ZM619.488 440.704L619.6 436.448C619.6 433.835 619.712 431.707 619.936 430.064C620.234 428.421 620.906 426.032 621.952 422.896C622.997 419.76 624.005 417.259 624.976 415.392C625.946 413.451 628.448 410.277 632.48 405.872C636.512 401.467 642.336 399.264 649.952 399.264C650.922 399.264 651.744 399.301 652.416 399.376C653.088 399.451 655.029 399.787 658.24 400.384C661.45 400.907 664.848 402.773 668.432 405.984C672.09 409.12 674.778 412.891 676.496 417.296C678.213 421.627 679.333 425.024 679.856 427.488C680.378 429.952 680.64 432.752 680.64 435.888C680.64 444.251 679.706 451.307 677.84 457.056C675.973 462.731 672.538 467.883 667.536 472.512C662.608 477.067 656.858 479.344 650.288 479.344C645.136 479.344 640.506 478 636.4 475.312C632.293 472.549 629.232 469.824 627.216 467.136C625.274 464.373 623.706 461.312 622.512 457.952C621.317 454.517 620.496 451.605 620.048 449.216C619.674 446.827 619.488 443.989 619.488 440.704ZM627.888 425.136C627.813 425.584 627.776 426.256 627.776 427.152C627.776 429.392 628.224 431.781 629.12 434.32C630.09 436.859 631.546 439.659 633.488 442.72C635.504 445.781 637.893 448.843 640.656 451.904C643.418 454.965 645.994 457.355 648.384 459.072C650.848 460.789 653.237 461.984 655.552 462.656C657.941 463.253 659.882 463.552 661.376 463.552C665.034 463.552 667.909 462.32 670 459.856C672.09 457.392 673.136 454.107 673.136 450C673.136 447.237 672.65 444.736 671.68 442.496C670.784 440.256 669.141 437.381 666.752 433.872C664.437 430.288 662.16 427.339 659.92 425.024C657.754 422.635 654.768 420.133 650.96 417.52C647.152 414.832 643.194 413.488 639.088 413.488C634.01 413.488 630.912 415.093 629.792 418.304C628.672 421.515 628.037 423.792 627.888 425.136ZM688.089 471.504C687.865 470.608 687.753 469.637 687.753 468.592C687.753 468.219 688.052 466.539 688.649 463.552C689.247 460.491 692.719 458.96 699.065 458.96C702.127 458.96 704.553 460.005 706.345 462.096C708.212 464.112 709.145 466.837 709.145 470.272C709.145 473.184 708.66 475.797 707.689 478.112C706.719 480.427 705.935 482.069 705.337 483.04C704.74 484.085 704.068 485.131 703.321 486.176L700.409 489.648L695.817 493.904C694.399 495.248 693.017 495.92 691.673 495.92C690.703 495.92 690.068 495.621 689.769 495.024C689.545 494.427 689.359 493.941 689.209 493.568C689.209 493.195 689.657 492.448 690.553 491.328C691.524 490.208 692.532 489.013 693.577 487.744C694.623 486.549 695.145 485.056 695.145 483.264C695.145 481.696 694.585 480.128 693.465 478.56L690.217 475.424C689.321 474.528 688.612 473.221 688.089 471.504ZM716.722 440.704L716.834 436.448C716.834 433.835 716.946 431.707 717.17 430.064C717.469 428.421 718.141 426.032 719.186 422.896C720.231 419.76 721.239 417.259 722.21 415.392C723.181 413.451 725.682 410.277 729.714 405.872C733.746 401.467 739.57 399.264 747.186 399.264C748.157 399.264 748.978 399.301 749.65 399.376C750.322 399.451 752.263 399.787 755.474 400.384C758.685 400.907 762.082 402.773 765.666 405.984C769.325 409.12 772.013 412.891 773.73 417.296C775.447 421.627 776.567 425.024 777.09 427.488C777.613 429.952 777.874 432.752 777.874 435.888C777.874 444.251 776.941 451.307 775.074 457.056C773.207 462.731 769.773 467.883 764.77 472.512C759.842 477.067 754.093 479.344 747.522 479.344C742.37 479.344 737.741 478 733.634 475.312C729.527 472.549 726.466 469.824 724.45 467.136C722.509 464.373 720.941 461.312 719.746 457.952C718.551 454.517 717.73 451.605 717.282 449.216C716.909 446.827 716.722 443.989 716.722 440.704ZM725.122 425.136C725.047 425.584 725.01 426.256 725.01 427.152C725.01 429.392 725.458 431.781 726.354 434.32C727.325 436.859 728.781 439.659 730.722 442.72C732.738 445.781 735.127 448.843 737.89 451.904C740.653 454.965 743.229 457.355 745.618 459.072C748.082 460.789 750.471 461.984 752.786 462.656C755.175 463.253 757.117 463.552 758.61 463.552C762.269 463.552 765.143 462.32 767.234 459.856C769.325 457.392 770.37 454.107 770.37 450C770.37 447.237 769.885 444.736 768.914 442.496C768.018 440.256 766.375 437.381 763.986 433.872C761.671 430.288 759.394 427.339 757.154 425.024C754.989 422.635 752.002 420.133 748.194 417.52C744.386 414.832 740.429 413.488 736.322 413.488C731.245 413.488 728.146 415.093 727.026 418.304C725.906 421.515 725.271 423.792 725.122 425.136ZM784.316 440.704L784.428 436.448C784.428 433.835 784.54 431.707 784.764 430.064C785.062 428.421 785.734 426.032 786.78 422.896C787.825 419.76 788.833 417.259 789.804 415.392C790.774 413.451 793.276 410.277 797.308 405.872C801.34 401.467 807.164 399.264 814.78 399.264C815.75 399.264 816.572 399.301 817.244 399.376C817.916 399.451 819.857 399.787 823.068 400.384C826.278 400.907 829.676 402.773 833.26 405.984C836.918 409.12 839.606 412.891 841.324 417.296C843.041 421.627 844.161 425.024 844.684 427.488C845.206 429.952 845.468 432.752 845.468 435.888C845.468 444.251 844.534 451.307 842.668 457.056C840.801 462.731 837.366 467.883 832.364 472.512C827.436 477.067 821.686 479.344 815.116 479.344C809.964 479.344 805.334 478 801.228 475.312C797.121 472.549 794.06 469.824 792.044 467.136C790.102 464.373 788.534 461.312 787.34 457.952C786.145 454.517 785.324 451.605 784.876 449.216C784.502 446.827 784.316 443.989 784.316 440.704ZM792.716 425.136C792.641 425.584 792.604 426.256 792.604 427.152C792.604 429.392 793.052 431.781 793.948 434.32C794.918 436.859 796.374 439.659 798.316 442.72C800.332 445.781 802.721 448.843 805.484 451.904C808.246 454.965 810.822 457.355 813.212 459.072C815.676 460.789 818.065 461.984 820.38 462.656C822.769 463.253 824.71 463.552 826.204 463.552C829.862 463.552 832.737 462.32 834.828 459.856C836.918 457.392 837.964 454.107 837.964 450C837.964 447.237 837.478 444.736 836.508 442.496C835.612 440.256 833.969 437.381 831.58 433.872C829.265 430.288 826.988 427.339 824.748 425.024C822.582 422.635 819.596 420.133 815.788 417.52C811.98 414.832 808.022 413.488 803.916 413.488C798.838 413.488 795.74 415.093 794.62 418.304C793.5 421.515 792.865 423.792 792.716 425.136ZM851.909 440.704L852.021 436.448C852.021 433.835 852.133 431.707 852.357 430.064C852.656 428.421 853.328 426.032 854.373 422.896C855.419 419.76 856.427 417.259 857.397 415.392C858.368 413.451 860.869 410.277 864.901 405.872C868.933 401.467 874.757 399.264 882.373 399.264C883.344 399.264 884.165 399.301 884.837 399.376C885.509 399.451 887.451 399.787 890.661 400.384C893.872 400.907 897.269 402.773 900.853 405.984C904.512 409.12 907.2 412.891 908.917 417.296C910.635 421.627 911.755 425.024 912.277 427.488C912.8 429.952 913.061 432.752 913.061 435.888C913.061 444.251 912.128 451.307 910.261 457.056C908.395 462.731 904.96 467.883 899.957 472.512C895.029 477.067 889.28 479.344 882.709 479.344C877.557 479.344 872.928 478 868.821 475.312C864.715 472.549 861.653 469.824 859.637 467.136C857.696 464.373 856.128 461.312 854.933 457.952C853.739 454.517 852.917 451.605 852.469 449.216C852.096 446.827 851.909 443.989 851.909 440.704ZM860.309 425.136C860.235 425.584 860.197 426.256 860.197 427.152C860.197 429.392 860.645 431.781 861.541 434.32C862.512 436.859 863.968 439.659 865.909 442.72C867.925 445.781 870.315 448.843 873.077 451.904C875.84 454.965 878.416 457.355 880.805 459.072C883.269 460.789 885.659 461.984 887.973 462.656C890.363 463.253 892.304 463.552 893.797 463.552C897.456 463.552 900.331 462.32 902.421 459.856C904.512 457.392 905.557 454.107 905.557 450C905.557 447.237 905.072 444.736 904.101 442.496C903.205 440.256 901.563 437.381 899.173 433.872C896.859 430.288 894.581 427.339 892.341 425.024C890.176 422.635 887.189 420.133 883.381 417.52C879.573 414.832 875.616 413.488 871.509 413.488C866.432 413.488 863.333 415.093 862.213 418.304C861.093 421.515 860.459 423.792 860.309 425.136ZM942.015 445.744H918.943V429.616H942.015V406.656H958.031V429.728H981.103V445.744H958.031V468.704H942.015V445.744Z" fill="url(#paint2_linear_425_232)"/>
</g>
<defs>
<filter id="filter0_dddddd_425_232" x="0" y="0" width="1362" height="809" filterUnits="userSpaceOnUse" color-interpolation-filters="sRGB">
<feFlood flood-opacity="0" result="BackgroundImageFix"/>
<feColorMatrix in="SourceAlpha" type="matrix" values="0 0 0 0 0 0 0 0 0 0 0 0 0 0 0 0 0 0 127 0" result="hardAlpha"/>
<feOffset/>
<feGaussianBlur stdDeviation="4.1376"/>
<feColorMatrix type="matrix" values="0 0 0 0 0.792157 0 0 0 0 0.407843 0 0 0 0 0.592157 0 0 0 1 0"/>
<feBlend mode="normal" in2="BackgroundImageFix" result="effect1_dropShadow_425_232"/>
<feColorMatrix in="SourceAlpha" type="matrix" values="0 0 0 0 0 0 0 0 0 0 0 0 0 0 0 0 0 0 127 0" result="hardAlpha"/>
<feOffset/>
<feGaussianBlur stdDeviation="8.2752"/>
<feColorMatrix type="matrix" values="0 0 0 0 0.792157 0 0 0 0 0.407843 0 0 0 0 0.592157 0 0 0 1 0"/>
<feBlend mode="normal" in2="effect1_dropShadow_425_232" result="effect2_dropShadow_425_232"/>
<feColorMatrix in="SourceAlpha" type="matrix" values="0 0 0 0 0 0 0 0 0 0 0 0 0 0 0 0 0 0 127 0" result="hardAlpha"/>
<feOffset/>
<feGaussianBlur stdDeviation="28.9632"/>
<feColorMatrix type="matrix" values="0 0 0 0 0.792157 0 0 0 0 0.407843 0 0 0 0 0.592157 0 0 0 1 0"/>
<feBlend mode="normal" in2="effect2_dropShadow_425_232" result="effect3_dropShadow_425_232"/>
<feColorMatrix in="SourceAlpha" type="matrix" values="0 0 0 0 0 0 0 0 0 0 0 0 0 0 0 0 0 0 127 0" result="hardAlpha"/>
<feOffset/>
<feGaussianBlur stdDeviation="57.9264"/>
<feColorMatrix type="matrix" values="0 0 0 0 0.792157 0 0 0 0 0.407843 0 0 0 0 0.592157 0 0 0 1 0"/>
<feBlend mode="normal" in2="effect3_dropShadow_425_232" result="effect4_dropShadow_425_232"/>
<feColorMatrix in="SourceAlpha" type="matrix" values="0 0 0 0 0 0 0 0 0 0 0 0 0 0 0 0 0 0 127 0" result="hardAlpha"/>
<feOffset/>
<feGaussianBlur stdDeviation="99.3024"/>
<feColorMatrix type="matrix" values="0 0 0 0 0.792157 0 0 0 0 0.407843 0 0 0 0 0.592157 0 0 0 1 0"/>
<feBlend mode="normal" in2="effect4_dropShadow_425_232" result="effect5_dropShadow_425_232"/>
<feColorMatrix in="SourceAlpha" type="matrix" values="0 0 0 0 0 0 0 0 0 0 0 0 0 0 0 0 0 0 127 0" result="hardAlpha"/>
<feOffset/>
<feGaussianBlur stdDeviation="125"/>
<feColorMatrix type="matrix" values="0 0 0 0 0.792157 0 0 0 0 0.407843 0 0 0 0 0.592157 0 0 0 1 0"/>
<feBlend mode="normal" in2="effect5_dropShadow_425_232" result="effect6_dropShadow_425_232"/>
<feBlend mode="normal" in="SourceGraphic" in2="effect6_dropShadow_425_232" result="shape"/>
</filter>
<linearGradient id="paint0_linear_425_232" x1="681" y1="250" x2="681" y2="559" gradientUnits="userSpaceOnUse">
<stop stop-color="#D24D8E"/>
<stop offset="1" stop-color="white"/>
</linearGradient>
<linearGradient id="paint1_linear_425_232" x1="396.108" y1="291.114" x2="991.699" y2="418.646" gradientUnits="userSpaceOnUse">
<stop stop-color="#D24D8E"/>
<stop offset="1" stop-color="#F4F4F4"/>
</linearGradient>
<linearGradient id="paint2_linear_425_232" x1="314.162" y1="327.456" x2="1103.89" y2="444.965" gradientUnits="userSpaceOnUse">
<stop stop-color="#D24D8E"/>
<stop offset="1" stop-color="#F4F4F4"/>
</linearGradient>
</defs>
</svg>
