<svg width="183" height="23" viewBox="0 0 183 23" fill="none" xmlns="http://www.w3.org/2000/svg">
<path d="M11.3965 8.89062C12.498 9.125 13.3223 9.5 13.8691 10.0156C14.627 10.7344 15.0059 11.6133 15.0059 12.6523C15.0059 13.4414 14.7559 14.1992 14.2559 14.9258C13.7559 15.6445 13.0684 16.1719 12.1934 16.5078C11.3262 16.8359 9.99805 17 8.20898 17H0.708984V16.5664H1.30664C1.9707 16.5664 2.44727 16.3555 2.73633 15.9336C2.91602 15.6602 3.00586 15.0781 3.00586 14.1875V3.92188C3.00586 2.9375 2.89258 2.31641 2.66602 2.05859C2.36133 1.71484 1.9082 1.54297 1.30664 1.54297H0.708984V1.10938H7.57617C8.85742 1.10938 9.88477 1.20312 10.6582 1.39062C11.8301 1.67188 12.7246 2.17188 13.3418 2.89062C13.959 3.60156 14.2676 4.42188 14.2676 5.35156C14.2676 6.14844 14.0254 6.86328 13.541 7.49609C13.0566 8.12109 12.3418 8.58594 11.3965 8.89062ZM5.25586 8.25781C5.54492 8.3125 5.87305 8.35547 6.24023 8.38672C6.61523 8.41016 7.02539 8.42188 7.4707 8.42188C8.61133 8.42188 9.4668 8.30078 10.0371 8.05859C10.6152 7.80859 11.0566 7.42969 11.3613 6.92188C11.666 6.41406 11.8184 5.85938 11.8184 5.25781C11.8184 4.32812 11.4395 3.53516 10.6816 2.87891C9.92383 2.22266 8.81836 1.89453 7.36523 1.89453C6.58398 1.89453 5.88086 1.98047 5.25586 2.15234V8.25781ZM5.25586 15.8516C6.16211 16.0625 7.05664 16.168 7.93945 16.168C9.35352 16.168 10.4316 15.8516 11.1738 15.2188C11.916 14.5781 12.2871 13.7891 12.2871 12.8516C12.2871 12.2344 12.1191 11.6406 11.7832 11.0703C11.4473 10.5 10.9004 10.0508 10.1426 9.72266C9.38477 9.39453 8.44727 9.23047 7.33008 9.23047C6.8457 9.23047 6.43164 9.23828 6.08789 9.25391C5.74414 9.26953 5.4668 9.29688 5.25586 9.33594V15.8516ZM18.873 10.3086C18.8652 11.9023 19.252 13.1523 20.0332 14.0586C20.8145 14.9648 21.7324 15.418 22.7871 15.418C23.4902 15.418 24.0996 15.2266 24.6152 14.8438C25.1387 14.4531 25.5762 13.7891 25.9277 12.8516L26.291 13.0859C26.127 14.1562 25.6504 15.1328 24.8613 16.0156C24.0723 16.8906 23.084 17.3281 21.8965 17.3281C20.6074 17.3281 19.502 16.8281 18.5801 15.8281C17.666 14.8203 17.209 13.4688 17.209 11.7734C17.209 9.9375 17.6777 8.50781 18.6152 7.48438C19.5605 6.45312 20.7441 5.9375 22.166 5.9375C23.3691 5.9375 24.3574 6.33594 25.1309 7.13281C25.9043 7.92188 26.291 8.98047 26.291 10.3086H18.873ZM18.873 9.62891H23.8418C23.8027 8.94141 23.7207 8.45703 23.5957 8.17578C23.4004 7.73828 23.1074 7.39453 22.7168 7.14453C22.334 6.89453 21.9316 6.76953 21.5098 6.76953C20.8613 6.76953 20.2793 7.02344 19.7637 7.53125C19.2559 8.03125 18.959 8.73047 18.873 9.62891ZM30.8613 8.22266C32.1191 6.70703 33.3184 5.94922 34.459 5.94922C35.0449 5.94922 35.5488 6.09766 35.9707 6.39453C36.3926 6.68359 36.7285 7.16406 36.9785 7.83594C37.1504 8.30469 37.2363 9.02344 37.2363 9.99219V14.5742C37.2363 15.2539 37.291 15.7148 37.4004 15.957C37.4863 16.1523 37.623 16.3047 37.8105 16.4141C38.0059 16.5234 38.3613 16.5781 38.877 16.5781V17H33.5684V16.5781H33.791C34.291 16.5781 34.6387 16.5039 34.834 16.3555C35.0371 16.1992 35.1777 15.9727 35.2559 15.6758C35.2871 15.5586 35.3027 15.1914 35.3027 14.5742V10.1797C35.3027 9.20312 35.1738 8.49609 34.916 8.05859C34.666 7.61328 34.2402 7.39062 33.6387 7.39062C32.709 7.39062 31.7832 7.89844 30.8613 8.91406V14.5742C30.8613 15.3008 30.9043 15.75 30.9902 15.9219C31.0996 16.1484 31.248 16.3164 31.4355 16.4258C31.6309 16.5273 32.0215 16.5781 32.6074 16.5781V17H27.2988V16.5781H27.5332C28.0801 16.5781 28.4473 16.4414 28.6348 16.168C28.8301 15.8867 28.9277 15.3555 28.9277 14.5742V10.5898C28.9277 9.30078 28.8965 8.51562 28.834 8.23438C28.7793 7.95312 28.6895 7.76172 28.5645 7.66016C28.4473 7.55859 28.2871 7.50781 28.084 7.50781C27.8652 7.50781 27.6035 7.56641 27.2988 7.68359L27.123 7.26172L30.3574 5.94922H30.8613V8.22266ZM42.8613 8.22266C44.1191 6.70703 45.3184 5.94922 46.459 5.94922C47.0449 5.94922 47.5488 6.09766 47.9707 6.39453C48.3926 6.68359 48.7285 7.16406 48.9785 7.83594C49.1504 8.30469 49.2363 9.02344 49.2363 9.99219V14.5742C49.2363 15.2539 49.291 15.7148 49.4004 15.957C49.4863 16.1523 49.623 16.3047 49.8105 16.4141C50.0059 16.5234 50.3613 16.5781 50.877 16.5781V17H45.5684V16.5781H45.791C46.291 16.5781 46.6387 16.5039 46.834 16.3555C47.0371 16.1992 47.1777 15.9727 47.2559 15.6758C47.2871 15.5586 47.3027 15.1914 47.3027 14.5742V10.1797C47.3027 9.20312 47.1738 8.49609 46.916 8.05859C46.666 7.61328 46.2402 7.39062 45.6387 7.39062C44.709 7.39062 43.7832 7.89844 42.8613 8.91406V14.5742C42.8613 15.3008 42.9043 15.75 42.9902 15.9219C43.0996 16.1484 43.248 16.3164 43.4355 16.4258C43.6309 16.5273 44.0215 16.5781 44.6074 16.5781V17H39.2988V16.5781H39.5332C40.0801 16.5781 40.4473 16.4414 40.6348 16.168C40.8301 15.8867 40.9277 15.3555 40.9277 14.5742V10.5898C40.9277 9.30078 40.8965 8.51562 40.834 8.23438C40.7793 7.95312 40.6895 7.76172 40.5645 7.66016C40.4473 7.55859 40.2871 7.50781 40.084 7.50781C39.8652 7.50781 39.6035 7.56641 39.2988 7.68359L39.123 7.26172L42.3574 5.94922H42.8613V8.22266ZM53.5371 10.3086C53.5293 11.9023 53.916 13.1523 54.6973 14.0586C55.4785 14.9648 56.3965 15.418 57.4512 15.418C58.1543 15.418 58.7637 15.2266 59.2793 14.8438C59.8027 14.4531 60.2402 13.7891 60.5918 12.8516L60.9551 13.0859C60.791 14.1562 60.3145 15.1328 59.5254 16.0156C58.7363 16.8906 57.748 17.3281 56.5605 17.3281C55.2715 17.3281 54.166 16.8281 53.2441 15.8281C52.3301 14.8203 51.873 13.4688 51.873 11.7734C51.873 9.9375 52.3418 8.50781 53.2793 7.48438C54.2246 6.45312 55.4082 5.9375 56.8301 5.9375C58.0332 5.9375 59.0215 6.33594 59.7949 7.13281C60.5684 7.92188 60.9551 8.98047 60.9551 10.3086H53.5371ZM53.5371 9.62891H58.5059C58.4668 8.94141 58.3848 8.45703 58.2598 8.17578C58.0645 7.73828 57.7715 7.39453 57.3809 7.14453C56.998 6.89453 56.5957 6.76953 56.1738 6.76953C55.5254 6.76953 54.9434 7.02344 54.4277 7.53125C53.9199 8.03125 53.623 8.73047 53.5371 9.62891ZM65.5137 2.73828V6.26562H68.0215V7.08594H65.5137V14.0469C65.5137 14.7422 65.6113 15.2109 65.8066 15.4531C66.0098 15.6953 66.2676 15.8164 66.5801 15.8164C66.8379 15.8164 67.0879 15.7383 67.3301 15.582C67.5723 15.418 67.7598 15.1797 67.8926 14.8672H68.3496C68.0762 15.6328 67.6895 16.2109 67.1895 16.6016C66.6895 16.9844 66.1738 17.1758 65.6426 17.1758C65.2832 17.1758 64.9316 17.0781 64.5879 16.8828C64.2441 16.6797 63.9902 16.3945 63.8262 16.0273C63.6621 15.6523 63.5801 15.0781 63.5801 14.3047V7.08594H61.8809V6.69922C62.3105 6.52734 62.748 6.23828 63.1934 5.83203C63.6465 5.41797 64.0488 4.92969 64.4004 4.36719C64.5801 4.07031 64.8301 3.52734 65.1504 2.73828H65.5137ZM72.1934 2.73828V6.26562H74.7012V7.08594H72.1934V14.0469C72.1934 14.7422 72.291 15.2109 72.4863 15.4531C72.6895 15.6953 72.9473 15.8164 73.2598 15.8164C73.5176 15.8164 73.7676 15.7383 74.0098 15.582C74.252 15.418 74.4395 15.1797 74.5723 14.8672H75.0293C74.7559 15.6328 74.3691 16.2109 73.8691 16.6016C73.3691 16.9844 72.8535 17.1758 72.3223 17.1758C71.9629 17.1758 71.6113 17.0781 71.2676 16.8828C70.9238 16.6797 70.6699 16.3945 70.5059 16.0273C70.3418 15.6523 70.2598 15.0781 70.2598 14.3047V7.08594H68.5605V6.69922C68.9902 6.52734 69.4277 6.23828 69.873 5.83203C70.3262 5.41797 70.7285 4.92969 71.0801 4.36719C71.2598 4.07031 71.5098 3.52734 71.8301 2.73828H72.1934ZM92.4551 1.54297V1.10938H98.0801V1.54297H97.4824C96.8574 1.54297 96.377 1.80469 96.041 2.32812C95.877 2.57031 95.7949 3.13281 95.7949 4.01562V10.4609C95.7949 12.0547 95.6348 13.293 95.3145 14.1758C95.002 15.0508 94.3809 15.8047 93.4512 16.4375C92.5293 17.0625 91.2715 17.375 89.6777 17.375C87.9434 17.375 86.627 17.0742 85.7285 16.4727C84.8301 15.8711 84.1934 15.0625 83.8184 14.0469C83.5684 13.3516 83.4434 12.0469 83.4434 10.1328V3.92188C83.4434 2.94531 83.3066 2.30469 83.0332 2C82.7676 1.69531 82.334 1.54297 81.7324 1.54297H81.1348V1.10938H88.002V1.54297H87.3926C86.7363 1.54297 86.2676 1.75 85.9863 2.16406C85.791 2.44531 85.6934 3.03125 85.6934 3.92188V10.8477C85.6934 11.4648 85.748 12.1719 85.8574 12.9688C85.9746 13.7656 86.1816 14.3867 86.4785 14.832C86.7754 15.2773 87.2012 15.6445 87.7559 15.9336C88.3184 16.2227 89.0059 16.3672 89.8184 16.3672C90.8574 16.3672 91.7871 16.1406 92.6074 15.6875C93.4277 15.2344 93.9863 14.6562 94.2832 13.9531C94.5879 13.2422 94.7402 12.043 94.7402 10.3555V3.92188C94.7402 2.92969 94.6309 2.30859 94.4121 2.05859C94.1074 1.71484 93.6543 1.54297 93.0527 1.54297H92.4551ZM102.229 8.22266C103.486 6.70703 104.686 5.94922 105.826 5.94922C106.412 5.94922 106.916 6.09766 107.338 6.39453C107.76 6.68359 108.096 7.16406 108.346 7.83594C108.518 8.30469 108.604 9.02344 108.604 9.99219V14.5742C108.604 15.2539 108.658 15.7148 108.768 15.957C108.854 16.1523 108.99 16.3047 109.178 16.4141C109.373 16.5234 109.729 16.5781 110.244 16.5781V17H104.936V16.5781H105.158C105.658 16.5781 106.006 16.5039 106.201 16.3555C106.404 16.1992 106.545 15.9727 106.623 15.6758C106.654 15.5586 106.67 15.1914 106.67 14.5742V10.1797C106.67 9.20312 106.541 8.49609 106.283 8.05859C106.033 7.61328 105.607 7.39062 105.006 7.39062C104.076 7.39062 103.15 7.89844 102.229 8.91406V14.5742C102.229 15.3008 102.271 15.75 102.357 15.9219C102.467 16.1484 102.615 16.3164 102.803 16.4258C102.998 16.5273 103.389 16.5781 103.975 16.5781V17H98.666V16.5781H98.9004C99.4473 16.5781 99.8145 16.4414 100.002 16.168C100.197 15.8867 100.295 15.3555 100.295 14.5742V10.5898C100.295 9.30078 100.264 8.51562 100.201 8.23438C100.146 7.95312 100.057 7.76172 99.9316 7.66016C99.8145 7.55859 99.6543 7.50781 99.4512 7.50781C99.2324 7.50781 98.9707 7.56641 98.666 7.68359L98.4902 7.26172L101.725 5.94922H102.229V8.22266ZM113.83 0.335938C114.158 0.335938 114.436 0.453125 114.662 0.6875C114.896 0.914062 115.014 1.19141 115.014 1.51953C115.014 1.84766 114.896 2.12891 114.662 2.36328C114.436 2.59766 114.158 2.71484 113.83 2.71484C113.502 2.71484 113.221 2.59766 112.986 2.36328C112.752 2.12891 112.635 1.84766 112.635 1.51953C112.635 1.19141 112.748 0.914062 112.975 0.6875C113.209 0.453125 113.494 0.335938 113.83 0.335938ZM114.803 5.94922V14.5742C114.803 15.2461 114.85 15.6953 114.943 15.9219C115.045 16.1406 115.189 16.3047 115.377 16.4141C115.572 16.5234 115.924 16.5781 116.432 16.5781V17H111.217V16.5781C111.74 16.5781 112.092 16.5273 112.271 16.4258C112.451 16.3242 112.592 16.1562 112.693 15.9219C112.803 15.6875 112.857 15.2383 112.857 14.5742V10.4375C112.857 9.27344 112.822 8.51953 112.752 8.17578C112.697 7.92578 112.611 7.75391 112.494 7.66016C112.377 7.55859 112.217 7.50781 112.014 7.50781C111.795 7.50781 111.529 7.56641 111.217 7.68359L111.053 7.26172L114.287 5.94922H114.803ZM117.229 6.26562H122.279V6.69922H121.951C121.646 6.69922 121.412 6.77344 121.248 6.92188C121.092 7.07031 121.014 7.26953 121.014 7.51953C121.014 7.79297 121.096 8.11719 121.26 8.49219L123.756 14.4219L126.264 8.26953C126.443 7.83203 126.533 7.5 126.533 7.27344C126.533 7.16406 126.502 7.07422 126.439 7.00391C126.354 6.88672 126.244 6.80859 126.111 6.76953C125.979 6.72266 125.709 6.69922 125.303 6.69922V6.26562H128.807V6.69922C128.4 6.73047 128.119 6.8125 127.963 6.94531C127.689 7.17969 127.443 7.57031 127.225 8.11719L123.416 17.3281H122.936L119.104 8.26953C118.932 7.84766 118.768 7.54688 118.611 7.36719C118.455 7.17969 118.256 7.02344 118.014 6.89844C117.881 6.82812 117.619 6.76172 117.229 6.69922V6.26562ZM131.584 10.3086C131.576 11.9023 131.963 13.1523 132.744 14.0586C133.525 14.9648 134.443 15.418 135.498 15.418C136.201 15.418 136.811 15.2266 137.326 14.8438C137.85 14.4531 138.287 13.7891 138.639 12.8516L139.002 13.0859C138.838 14.1562 138.361 15.1328 137.572 16.0156C136.783 16.8906 135.795 17.3281 134.607 17.3281C133.318 17.3281 132.213 16.8281 131.291 15.8281C130.377 14.8203 129.92 13.4688 129.92 11.7734C129.92 9.9375 130.389 8.50781 131.326 7.48438C132.271 6.45312 133.455 5.9375 134.877 5.9375C136.08 5.9375 137.068 6.33594 137.842 7.13281C138.615 7.92188 139.002 8.98047 139.002 10.3086H131.584ZM131.584 9.62891H136.553C136.514 8.94141 136.432 8.45703 136.307 8.17578C136.111 7.73828 135.818 7.39453 135.428 7.14453C135.045 6.89453 134.643 6.76953 134.221 6.76953C133.572 6.76953 132.99 7.02344 132.475 7.53125C131.967 8.03125 131.67 8.73047 131.584 9.62891ZM143.584 5.94922V8.36328C144.482 6.75391 145.404 5.94922 146.35 5.94922C146.779 5.94922 147.135 6.08203 147.416 6.34766C147.697 6.60547 147.838 6.90625 147.838 7.25C147.838 7.55469 147.736 7.8125 147.533 8.02344C147.33 8.23438 147.088 8.33984 146.807 8.33984C146.533 8.33984 146.225 8.20703 145.881 7.94141C145.545 7.66797 145.295 7.53125 145.131 7.53125C144.99 7.53125 144.838 7.60938 144.674 7.76562C144.322 8.08594 143.959 8.61328 143.584 9.34766V14.4922C143.584 15.0859 143.658 15.5352 143.807 15.8398C143.908 16.0508 144.088 16.2266 144.346 16.3672C144.604 16.5078 144.975 16.5781 145.459 16.5781V17H139.963V16.5781C140.51 16.5781 140.916 16.4922 141.182 16.3203C141.377 16.1953 141.514 15.9961 141.592 15.7227C141.631 15.5898 141.65 15.2109 141.65 14.5859V10.4258C141.65 9.17578 141.623 8.43359 141.568 8.19922C141.521 7.95703 141.428 7.78125 141.287 7.67188C141.154 7.5625 140.986 7.50781 140.783 7.50781C140.541 7.50781 140.268 7.56641 139.963 7.68359L139.846 7.26172L143.092 5.94922H143.584ZM155.373 5.94922V9.60547H154.986C154.689 8.45703 154.307 7.67578 153.838 7.26172C153.377 6.84766 152.787 6.64062 152.068 6.64062C151.521 6.64062 151.08 6.78516 150.744 7.07422C150.408 7.36328 150.24 7.68359 150.24 8.03516C150.24 8.47266 150.365 8.84766 150.615 9.16016C150.857 9.48047 151.35 9.82031 152.092 10.1797L153.803 11.0117C155.389 11.7852 156.182 12.8047 156.182 14.0703C156.182 15.0469 155.811 15.8359 155.068 16.4375C154.334 17.0312 153.51 17.3281 152.596 17.3281C151.939 17.3281 151.189 17.2109 150.346 16.9766C150.088 16.8984 149.877 16.8594 149.713 16.8594C149.533 16.8594 149.393 16.9609 149.291 17.1641H148.904V13.332H149.291C149.51 14.4258 149.928 15.25 150.545 15.8047C151.162 16.3594 151.854 16.6367 152.619 16.6367C153.158 16.6367 153.596 16.4805 153.932 16.168C154.275 15.8477 154.447 15.4648 154.447 15.0195C154.447 14.4805 154.256 14.0273 153.873 13.6602C153.498 13.293 152.744 12.8281 151.611 12.2656C150.479 11.7031 149.736 11.1953 149.385 10.7422C149.033 10.2969 148.857 9.73438 148.857 9.05469C148.857 8.17188 149.158 7.43359 149.76 6.83984C150.369 6.24609 151.154 5.94922 152.115 5.94922C152.537 5.94922 153.049 6.03906 153.65 6.21875C154.049 6.33594 154.314 6.39453 154.447 6.39453C154.572 6.39453 154.67 6.36719 154.74 6.3125C154.811 6.25781 154.893 6.13672 154.986 5.94922H155.373ZM160.518 0.335938C160.846 0.335938 161.123 0.453125 161.35 0.6875C161.584 0.914062 161.701 1.19141 161.701 1.51953C161.701 1.84766 161.584 2.12891 161.35 2.36328C161.123 2.59766 160.846 2.71484 160.518 2.71484C160.189 2.71484 159.908 2.59766 159.674 2.36328C159.439 2.12891 159.322 1.84766 159.322 1.51953C159.322 1.19141 159.436 0.914062 159.662 0.6875C159.896 0.453125 160.182 0.335938 160.518 0.335938ZM161.49 5.94922V14.5742C161.49 15.2461 161.537 15.6953 161.631 15.9219C161.732 16.1406 161.877 16.3047 162.064 16.4141C162.26 16.5234 162.611 16.5781 163.119 16.5781V17H157.904V16.5781C158.428 16.5781 158.779 16.5273 158.959 16.4258C159.139 16.3242 159.279 16.1562 159.381 15.9219C159.49 15.6875 159.545 15.2383 159.545 14.5742V10.4375C159.545 9.27344 159.51 8.51953 159.439 8.17578C159.385 7.92578 159.299 7.75391 159.182 7.66016C159.064 7.55859 158.904 7.50781 158.701 7.50781C158.482 7.50781 158.217 7.56641 157.904 7.68359L157.74 7.26172L160.975 5.94922H161.49ZM167.584 2.73828V6.26562H170.092V7.08594H167.584V14.0469C167.584 14.7422 167.682 15.2109 167.877 15.4531C168.08 15.6953 168.338 15.8164 168.65 15.8164C168.908 15.8164 169.158 15.7383 169.4 15.582C169.643 15.418 169.83 15.1797 169.963 14.8672H170.42C170.146 15.6328 169.76 16.2109 169.26 16.6016C168.76 16.9844 168.244 17.1758 167.713 17.1758C167.354 17.1758 167.002 17.0781 166.658 16.8828C166.314 16.6797 166.061 16.3945 165.896 16.0273C165.732 15.6523 165.65 15.0781 165.65 14.3047V7.08594H163.951V6.69922C164.381 6.52734 164.818 6.23828 165.264 5.83203C165.717 5.41797 166.119 4.92969 166.471 4.36719C166.65 4.07031 166.9 3.52734 167.221 2.73828H167.584ZM170.537 6.26562H175.541V6.69922H175.295C174.943 6.69922 174.678 6.77734 174.498 6.93359C174.326 7.08203 174.24 7.26953 174.24 7.49609C174.24 7.80078 174.369 8.22266 174.627 8.76172L177.24 14.1758L179.643 8.24609C179.775 7.92578 179.842 7.60938 179.842 7.29688C179.842 7.15625 179.814 7.05078 179.76 6.98047C179.697 6.89453 179.6 6.82812 179.467 6.78125C179.334 6.72656 179.1 6.69922 178.764 6.69922V6.26562H182.256V6.69922C181.967 6.73047 181.744 6.79297 181.588 6.88672C181.432 6.98047 181.26 7.15625 181.072 7.41406C181.002 7.52344 180.869 7.82422 180.674 8.31641L176.303 19.0273C175.881 20.0664 175.326 20.8516 174.639 21.3828C173.959 21.9141 173.303 22.1797 172.67 22.1797C172.209 22.1797 171.83 22.0469 171.533 21.7812C171.236 21.5156 171.088 21.2109 171.088 20.8672C171.088 20.5391 171.193 20.2734 171.404 20.0703C171.623 19.875 171.92 19.7773 172.295 19.7773C172.553 19.7773 172.904 19.8633 173.35 20.0352C173.662 20.1523 173.857 20.2109 173.936 20.2109C174.17 20.2109 174.424 20.0898 174.697 19.8477C174.979 19.6055 175.26 19.1367 175.541 18.4414L176.303 16.5781L172.447 8.48047C172.33 8.23828 172.143 7.9375 171.885 7.57812C171.689 7.30469 171.529 7.12109 171.404 7.02734C171.225 6.90234 170.936 6.79297 170.537 6.69922V6.26562Z" fill="white"/>
<path d="M0.310547 20.1992H182.396V21.3711H0.310547V20.1992Z" fill="white"/>
</svg>
