<svg width="242" height="126" viewBox="0 0 242 126" fill="none" xmlns="http://www.w3.org/2000/svg">
<path d="M10.8351 36H0.613055C1.70239 34.9107 2.24705 33.5553 2.24705 31.934V11.87C2.24705 11.6927 2.20905 11.49 2.13305 11.262C2.08239 11.0087 1.95572 10.6413 1.75305 10.16C1.55039 9.65333 1.18305 9.14667 0.651055 8.64H17.1051C18.1944 8.64 19.0304 8.57667 19.6131 8.45C20.1957 8.32333 20.8164 8.07 21.4751 7.69L21.8931 9.286C22.6024 11.3887 23.5017 13.2887 24.5911 14.986L23.6031 15.176C22.9697 15.176 22.3744 15.138 21.8171 15.062C21.2597 14.9607 20.6391 14.796 19.9551 14.568C19.2964 14.3147 18.8024 14.112 18.4731 13.96C18.1691 13.808 17.3711 13.3393 16.0791 12.554C14.7871 11.7433 13.7484 11.186 12.9631 10.882C12.2031 10.578 11.1771 10.426 9.88506 10.426H9.12505V19.09L11.4431 19.204C13.7231 19.204 15.4964 19.052 16.7631 18.748C18.0551 18.4187 19.1697 17.8613 20.1071 17.076C20.8164 19.1787 21.6777 21.2687 22.6911 23.346L23.1091 24.22L23.5271 25.018L21.7411 25.36C21.3357 25.0307 20.9051 24.7393 20.4491 24.486C20.0184 24.2073 19.6004 23.954 19.1951 23.726L19.0431 23.65L17.5611 23.004L16.1551 22.396L15.9271 22.282L15.3191 22.092C13.8497 21.6867 12.6211 21.484 11.6331 21.484C11.2277 21.484 10.8097 21.522 10.3791 21.598C9.97372 21.6487 9.55572 21.75 9.12505 21.902V32.998C9.12505 33.302 9.21372 33.6693 9.39105 34.1C9.59372 34.5307 9.88506 34.974 10.2651 35.43L10.8351 36ZM25.1495 27.146V25.816L25.2635 24.524C25.4155 23.46 25.6435 22.51 25.9475 21.674C26.2768 20.838 27.0621 19.6347 28.3035 18.064C29.5448 16.468 31.5968 15.67 34.4595 15.67C35.0168 15.67 35.7641 15.746 36.7015 15.898C37.6388 16.0247 38.7155 16.5947 39.9315 17.608C41.1728 18.6213 42.0468 19.774 42.5535 21.066C43.0601 22.3327 43.3515 23.3587 43.4275 24.144C43.5288 24.9293 43.5795 26.0187 43.5795 27.412C43.4275 29.084 42.9841 30.566 42.2495 31.858C41.5401 33.15 40.7041 34.176 39.7415 34.936C38.7788 35.696 37.8035 36.19 36.8155 36.418C35.8275 36.6713 34.9535 36.798 34.1935 36.798C31.0775 36.798 28.9115 35.8607 27.6955 33.986C26.5048 32.1113 25.7828 30.7687 25.5295 29.958C25.2761 29.122 25.1495 28.1847 25.1495 27.146ZM32.2175 20.762V31.25C32.2175 32.466 32.3948 33.378 32.7495 33.986C33.1295 34.5687 33.6488 34.86 34.3075 34.86C34.5101 34.86 34.8015 34.8093 35.1815 34.708C35.5868 34.6067 35.9035 34.3153 36.1315 33.834C36.3848 33.3527 36.5115 32.6433 36.5115 31.706V21.598L36.4735 20.648C36.3468 19.584 36.1315 18.8367 35.8275 18.406C35.5235 17.9753 35.0675 17.76 34.4595 17.76C33.7248 17.76 33.1675 17.988 32.7875 18.444C32.4075 18.9 32.2175 19.6727 32.2175 20.762ZM54.0399 36H44.9959C45.4772 35.4933 45.8192 34.898 46.0219 34.214C46.2499 33.53 46.3639 32.6307 46.3639 31.516V11.832C46.3639 10.5147 45.9205 9.628 45.0339 9.172C47.0605 9.172 49.0365 8.80467 50.9619 8.07L52.6719 7.272V32.656C52.6719 34.1507 53.1279 35.2653 54.0399 36ZM64.1336 36H55.0896C55.571 35.4933 55.913 34.898 56.1156 34.214C56.3436 33.53 56.4576 32.6307 56.4576 31.516V11.832C56.4576 10.5147 56.0143 9.628 55.1276 9.172C57.1543 9.172 59.1303 8.80467 61.0556 8.07L62.7656 7.272V32.656C62.7656 34.1507 63.2216 35.2653 64.1336 36ZM65.4874 27.146V25.816L65.6014 24.524C65.7534 23.46 65.9814 22.51 66.2854 21.674C66.6147 20.838 67.4 19.6347 68.6414 18.064C69.8827 16.468 71.9347 15.67 74.7974 15.67C75.3547 15.67 76.102 15.746 77.0394 15.898C77.9767 16.0247 79.0534 16.5947 80.2694 17.608C81.5107 18.6213 82.3847 19.774 82.8914 21.066C83.398 22.3327 83.6894 23.3587 83.7654 24.144C83.8667 24.9293 83.9174 26.0187 83.9174 27.412C83.7654 29.084 83.322 30.566 82.5874 31.858C81.878 33.15 81.042 34.176 80.0794 34.936C79.1167 35.696 78.1414 36.19 77.1534 36.418C76.1654 36.6713 75.2914 36.798 74.5314 36.798C71.4154 36.798 69.2494 35.8607 68.0334 33.986C66.8427 32.1113 66.1207 30.7687 65.8674 29.958C65.614 29.122 65.4874 28.1847 65.4874 27.146ZM72.5554 20.762V31.25C72.5554 32.466 72.7327 33.378 73.0874 33.986C73.4674 34.5687 73.9867 34.86 74.6454 34.86C74.848 34.86 75.1394 34.8093 75.5194 34.708C75.9247 34.6067 76.2414 34.3153 76.4694 33.834C76.7227 33.3527 76.8494 32.6433 76.8494 31.706V21.598L76.8114 20.648C76.6847 19.584 76.4694 18.8367 76.1654 18.406C75.8614 17.9753 75.4054 17.76 74.7974 17.76C74.0627 17.76 73.5054 17.988 73.1254 18.444C72.7454 18.9 72.5554 19.6727 72.5554 20.762ZM84.7258 17L84.2698 16.582H93.6938C93.1364 17.2153 92.8578 18.026 92.8578 19.014C92.8578 19.166 92.8704 19.3433 92.8958 19.546C92.9211 19.7487 92.9338 19.9133 92.9338 20.04L93.0478 20.61L95.4038 28.286L100.382 17.418L105.588 29.388L106.88 25.056C106.956 24.8533 107.019 24.6253 107.07 24.372C107.12 24.0933 107.196 23.65 107.298 23.042C107.399 22.434 107.45 21.6993 107.45 20.838C107.45 20.1793 107.374 19.584 107.222 19.052C107.095 18.4947 106.88 17.9373 106.576 17.38L106.082 16.582H113.34C113.01 17.1393 112.656 17.7853 112.276 18.52C111.921 19.2293 111.668 19.7867 111.516 20.192L111.326 20.61L110.11 23.878L107.032 32.2C106.981 32.352 106.956 32.4913 106.956 32.618C106.956 32.8207 106.981 33.0107 107.032 33.188C107.082 33.3653 107.158 33.5807 107.26 33.834C107.386 34.0873 107.513 34.3407 107.64 34.594C107.792 34.822 107.969 35.0627 108.172 35.316L108.742 36C108.184 36 107.614 36.038 107.032 36.114C106.474 36.19 106.031 36.2533 105.702 36.304L102.054 36.988L98.5198 28.438L96.5438 31.858L96.7338 32.618C96.9364 33.2513 97.1898 33.834 97.4938 34.366C97.7978 34.898 98.1904 35.392 98.6718 35.848C97.4811 35.9493 96.2778 36.114 95.0618 36.342C93.8711 36.5953 92.7058 36.8487 91.5658 37.102L85.8658 18.634C85.7391 18.2287 85.3591 17.684 84.7258 17ZM124.867 17.76L124.373 17.38C124.981 17.38 125.614 17.3293 126.273 17.228C126.957 17.1267 127.628 17 128.287 16.848C128.971 16.696 129.617 16.506 130.225 16.278C130.858 16.05 131.479 15.784 132.087 15.48V31.44C132.087 31.9213 132.277 32.3267 132.657 32.656C133.037 32.9853 133.48 33.15 133.987 33.15C134.443 33.15 134.835 32.9727 135.165 32.618C135.494 32.2633 135.659 31.8707 135.659 31.44V19.508C135.659 19.4067 135.633 19.2927 135.583 19.166C135.532 19.0393 135.405 18.7987 135.203 18.444C135 18.064 134.671 17.7093 134.215 17.38C135.329 17.38 136.583 17.1773 137.977 16.772C139.395 16.3413 140.713 15.9107 141.929 15.48V33.15C141.929 33.8847 142.207 34.6447 142.765 35.43L143.297 36H135.659V34.518C135.481 34.67 135.317 34.8093 135.165 34.936C135.038 35.0627 134.709 35.3033 134.177 35.658C133.645 36.0127 132.973 36.2787 132.163 36.456C131.352 36.6587 130.655 36.76 130.073 36.76C127.235 36.76 125.817 34.9867 125.817 31.44L125.779 30.528V19.432C125.779 19.1533 125.703 18.8873 125.551 18.634C125.424 18.3553 125.196 18.064 124.867 17.76ZM147.187 35.582C146.325 34.3407 145.388 33.0993 144.375 31.858C145.109 31.4527 145.869 31.25 146.655 31.25C147.516 31.25 148.504 31.4907 149.619 31.972C150.759 32.428 151.759 32.96 152.621 33.568C153.482 34.1507 154.09 34.48 154.445 34.556C154.825 34.632 155.23 34.67 155.661 34.67C156.117 34.67 156.535 34.6193 156.915 34.518C157.32 34.3913 157.7 34.138 158.055 33.758C158.435 33.3527 158.625 32.884 158.625 32.352C158.625 31.668 158.371 31.1233 157.865 30.718C157.358 30.3127 157.003 30.0593 156.801 29.958C156.598 29.8567 156.104 29.6793 155.319 29.426L149.163 27.374L148.061 26.88C147.022 26.3227 146.237 25.6133 145.705 24.752C145.198 23.8653 144.945 22.8773 144.945 21.788C144.945 20.7493 145.147 19.8627 145.553 19.128C145.958 18.3933 146.68 17.6207 147.719 16.81C148.757 15.9993 150.062 15.594 151.633 15.594C152.266 15.594 153.089 15.6953 154.103 15.898C155.141 16.1007 155.977 16.202 156.611 16.202C157.168 16.202 157.814 16.0373 158.549 15.708C158.903 16.3667 159.334 17.1393 159.841 18.026C160.373 18.8873 160.879 19.6853 161.361 20.42C160.702 20.5973 160.132 20.686 159.651 20.686C158.967 20.686 158.295 20.572 157.637 20.344C157.003 20.0907 156.509 19.8753 156.155 19.698C155.825 19.4953 155.281 19.1407 154.521 18.634C153.761 18.1273 153.115 17.798 152.583 17.646C152.076 17.4687 151.658 17.38 151.329 17.38C150.847 17.4053 150.442 17.608 150.113 17.988C149.783 18.368 149.619 18.786 149.619 19.242C149.619 19.47 149.682 19.7613 149.809 20.116C149.961 20.4453 150.252 20.762 150.683 21.066C151.139 21.3447 151.519 21.5473 151.823 21.674C152.127 21.8007 152.697 21.9907 153.533 22.244L158.625 23.726C158.853 23.7767 159.651 24.1567 161.019 24.866C162.412 25.55 163.109 27.032 163.109 29.312C163.109 30.4773 162.703 31.7567 161.893 33.15C161.107 34.518 160.157 35.3667 159.043 35.696C157.928 36.0253 157.206 36.2153 156.877 36.266C156.547 36.3167 156.104 36.342 155.547 36.342C154.559 36.342 153.254 36.2153 151.633 35.962C151.405 35.9367 151.177 35.9367 150.949 35.962C150.721 35.9873 150.391 36.0507 149.961 36.152C149.53 36.2787 149.201 36.38 148.973 36.456C148.745 36.5573 148.441 36.6967 148.061 36.874L147.187 35.582Z" fill="white"/>
<g clip-path="url(#clip0_425_293)">
<path fill-rule="evenodd" clip-rule="evenodd" d="M210.345 126L210.373 126H210.364L210.345 126ZM210.564 126H210.555L210.582 126L210.564 126ZM210.251 125.999L210.281 125.999H210.263L210.251 125.999ZM210.664 125.999H210.647L210.677 125.999L210.664 125.999ZM210.159 125.999L210.179 125.999L210.163 125.999H210.159ZM210.764 125.999L210.748 125.999L210.768 125.999H210.764ZM210.864 125.997L210.857 125.998L210.884 125.997L210.864 125.997ZM210.043 125.997L210.07 125.998L210.063 125.997L210.043 125.997ZM210.964 125.996L210.948 125.996L210.981 125.996L210.964 125.996ZM209.947 125.996L209.98 125.996L209.964 125.996L209.947 125.996ZM211.064 125.994L211.042 125.995L211.073 125.994L211.064 125.994ZM209.855 125.994L209.886 125.995L209.864 125.994L209.855 125.994ZM209.742 125.992L209.769 125.992L209.764 125.992L209.742 125.992ZM211.164 125.992L211.159 125.992L211.186 125.992L211.164 125.992ZM209.642 125.989L209.679 125.99L209.664 125.99L209.642 125.989ZM211.263 125.99L211.248 125.99L211.286 125.989L211.263 125.99ZM211.363 125.987L211.339 125.988L211.377 125.987L211.363 125.987ZM209.551 125.987L209.589 125.988L209.565 125.987L209.551 125.987ZM209.464 125.984L209.491 125.985L209.465 125.984L209.442 125.983L209.464 125.984ZM211.463 125.984L211.437 125.985L211.464 125.984L211.486 125.983L211.463 125.984ZM211.562 125.981L211.549 125.981L211.59 125.98L211.562 125.981ZM209.337 125.98L209.379 125.981L209.366 125.981L209.337 125.98ZM209.247 125.977L209.291 125.978L209.266 125.977L209.247 125.977ZM211.661 125.977L211.637 125.978L211.681 125.977L211.661 125.977ZM209.158 125.973L209.201 125.975L209.167 125.973L209.158 125.973ZM211.761 125.973L211.727 125.975L211.77 125.973L211.761 125.973ZM209.033 125.967L209.079 125.969L209.068 125.969L209.033 125.967ZM211.86 125.969L211.849 125.969L211.895 125.967L211.86 125.969ZM208.944 125.963L208.991 125.965L208.969 125.965L208.944 125.963ZM211.959 125.965L211.936 125.965L211.984 125.963L211.959 125.965ZM208.855 125.959L208.903 125.961L208.87 125.96L208.855 125.959ZM212.058 125.96L212.024 125.961L212.072 125.959L212.058 125.96ZM212.157 125.954L212.113 125.957L212.152 125.955L212.198 125.952L212.157 125.954ZM208.776 125.955L208.814 125.957L208.771 125.954L208.73 125.952L208.776 125.955ZM212.256 125.949L212.237 125.95L212.286 125.947L212.256 125.949ZM208.642 125.947L208.691 125.95L208.672 125.949L208.642 125.947ZM208.555 125.942L208.604 125.945L208.573 125.943L208.555 125.942ZM212.355 125.943L212.324 125.945L212.373 125.942L212.355 125.943ZM208.471 125.937L208.515 125.94L208.474 125.937L208.433 125.934L208.471 125.937ZM212.454 125.937L212.412 125.94L212.457 125.937L212.495 125.934L212.454 125.937ZM212.552 125.931L212.537 125.932L212.584 125.928L212.552 125.931ZM208.344 125.928L208.39 125.932L208.376 125.931L208.344 125.928ZM208.256 125.922L208.302 125.926L208.277 125.924L208.256 125.922ZM212.651 125.924L212.626 125.926L212.672 125.922L212.651 125.924ZM208.169 125.916L208.211 125.919L208.179 125.917L208.169 125.916ZM212.749 125.917L212.716 125.919L212.759 125.916L212.749 125.917ZM208.052 125.907L208.089 125.91L208.08 125.91L208.052 125.907ZM212.848 125.91L212.839 125.91L212.876 125.907L212.848 125.91ZM212.946 125.902L212.928 125.903L212.966 125.9L212.946 125.902ZM207.962 125.9L208 125.903L207.982 125.902L207.962 125.9ZM207.874 125.893L207.906 125.896L207.884 125.894L207.874 125.893ZM213.044 125.894L213.022 125.896L213.054 125.893L213.044 125.894ZM207.778 125.885L207.787 125.886L207.786 125.886L207.778 125.885ZM213.142 125.886L213.141 125.886L213.15 125.885L213.142 125.886ZM213.24 125.877L213.232 125.878L213.254 125.876L213.24 125.877ZM207.674 125.876L207.696 125.878L207.687 125.877L207.674 125.876ZM207.583 125.868L207.6 125.869L207.59 125.868L207.583 125.868ZM213.338 125.868L213.328 125.869L213.344 125.868L213.338 125.868ZM205.62 125.623C190.808 123.295 179.464 110.462 179.464 95C179.464 77.8907 193.355 64 210.464 64C227.573 64 241.464 77.8907 241.464 95C241.464 110.462 230.12 123.295 215.308 125.623V103.961H222.531L223.905 95H215.308V89.185C215.308 86.7334 216.509 84.3438 220.36 84.3438H224.269V76.7148C224.269 76.7148 220.721 76.1094 217.329 76.1094C210.248 76.1094 205.62 80.4009 205.62 88.1703V95H197.749V103.961H205.62V125.623Z" fill="#D24D8E"/>
</g>
<g clip-path="url(#clip1_425_293)">
<path fill-rule="evenodd" clip-rule="evenodd" d="M31.4639 65C48.5732 65 62.4639 78.6666 62.4639 95.5C62.4639 112.333 48.5732 126 31.4639 126C14.3545 126 0.463867 112.333 0.463867 95.5C0.463867 78.6666 14.3545 65 31.4639 65ZM31.4639 76.4375C26.202 76.4375 25.5421 76.4594 23.4756 76.5522C21.4133 76.6448 20.0049 76.9671 18.7724 77.4383C17.4984 77.9254 16.4178 78.5773 15.3407 79.637C14.2636 80.6968 13.6011 81.7599 13.1059 83.0133C12.627 84.2258 12.2996 85.6116 12.2054 87.6405C12.1111 89.6738 12.0889 90.323 12.0889 95.5C12.0889 100.677 12.1111 101.326 12.2054 103.359C12.2996 105.388 12.627 106.774 13.1059 107.987C13.6011 109.24 14.2636 110.303 15.3407 111.363C16.4178 112.423 17.4984 113.075 18.7724 113.562C20.0049 114.033 21.4133 114.355 23.4756 114.448C25.5421 114.541 26.202 114.562 31.4639 114.562C36.7258 114.562 37.3856 114.541 39.4522 114.448C41.5144 114.355 42.9228 114.033 44.1552 113.562C45.4292 113.075 46.5098 112.423 47.587 111.363C48.6641 110.303 49.3266 109.24 49.8218 107.987C50.3006 106.774 50.6282 105.388 50.7223 103.359C50.8166 101.326 50.8389 100.677 50.8389 95.5C50.8389 90.323 50.8166 89.6738 50.7223 87.6405C50.6282 85.6116 50.3006 84.2258 49.8218 83.0133C49.3266 81.7599 48.6641 80.6968 47.587 79.637C46.5098 78.5773 45.4292 77.9254 44.1552 77.4383C42.9228 76.9671 41.5144 76.6448 39.4522 76.5522C37.3856 76.4594 36.7258 76.4375 31.4639 76.4375ZM31.4639 79.8722C36.6372 79.8722 37.25 79.8916 39.2931 79.9834C41.1821 80.0682 42.2079 80.3787 42.8906 80.6397C43.7951 80.9855 44.4405 81.3986 45.1184 82.0657C45.7965 82.7327 46.2164 83.3678 46.5678 84.2575C46.8331 84.9292 47.1488 85.9385 47.2349 87.7971C47.3281 89.8072 47.3479 90.4101 47.3479 95.5C47.3479 100.59 47.3281 101.193 47.2349 103.203C47.1488 105.062 46.8331 106.071 46.5678 106.742C46.2164 107.632 45.7965 108.267 45.1184 108.934C44.4405 109.601 43.7951 110.015 42.8906 110.36C42.2079 110.621 41.1821 110.932 39.2931 111.017C37.2503 111.108 36.6376 111.128 31.4639 111.128C26.2901 111.128 25.6775 111.108 23.6347 111.017C21.7456 110.932 20.7198 110.621 20.0371 110.36C19.1326 110.015 18.4872 109.601 17.8092 108.934C17.1312 108.267 16.7114 107.632 16.36 106.742C16.0946 106.071 15.779 105.062 15.6927 103.203C15.5995 101.193 15.5799 100.59 15.5799 95.5C15.5799 90.4101 15.5995 89.8072 15.6927 87.7971C15.779 85.9385 16.0946 84.9292 16.36 84.2575C16.7114 83.3678 17.1312 82.7327 17.8092 82.0657C18.4872 81.3986 19.1326 80.9855 20.0371 80.6397C20.7198 80.3787 21.7456 80.0682 23.6347 79.9834C25.6778 79.8916 26.2905 79.8722 31.4639 79.8722ZM31.4639 85.7112C25.969 85.7112 21.5146 90.0938 21.5146 95.5C21.5146 100.906 25.969 105.289 31.4639 105.289C36.9587 105.289 41.4132 100.906 41.4132 95.5C41.4132 90.0938 36.9587 85.7112 31.4639 85.7112ZM31.4639 101.854C27.8971 101.854 25.0056 99.0093 25.0056 95.5C25.0056 91.9907 27.8971 89.1459 31.4639 89.1459C35.0307 89.1459 37.9222 91.9907 37.9222 95.5C37.9222 99.0093 35.0307 101.854 31.4639 101.854ZM44.1314 85.3244C44.1314 86.5878 43.0903 87.6118 41.8062 87.6118C40.5223 87.6118 39.4814 86.5878 39.4814 85.3244C39.4814 84.0611 40.5223 83.0369 41.8062 83.0369C43.0903 83.0369 44.1314 84.0611 44.1314 85.3244Z" fill="#D24D8E"/>
</g>
<g clip-path="url(#clip2_425_293)">
<path fill-rule="evenodd" clip-rule="evenodd" d="M120.964 64C137.797 64 151.464 77.8907 151.464 95C151.464 112.109 137.797 126 120.964 126C104.13 126 90.4639 112.109 90.4639 95C90.4639 77.8907 104.13 64 120.964 64ZM111.428 112.422V88.2127H103.51V112.422H111.428ZM139.977 112.422V98.539C139.977 91.1027 136.07 87.6434 130.861 87.6434C126.661 87.6434 124.78 89.9913 123.726 91.6404V88.2127H115.81C115.915 90.4841 115.81 112.422 115.81 112.422H123.726V98.9018C123.726 98.1781 123.777 97.4547 123.987 96.9375C124.558 95.4922 125.862 93.995 128.049 93.995C130.913 93.995 132.06 96.2159 132.06 99.469V112.422H139.977ZM107.522 76.5393C104.813 76.5393 103.043 78.3496 103.043 80.7224C103.043 83.0453 104.759 84.9055 107.418 84.9055H107.469C110.23 84.9055 111.948 83.0453 111.948 80.7224C111.897 78.3496 110.23 76.5393 107.522 76.5393Z" fill="#D24D8E"/>
</g>
<defs>
<clipPath id="clip0_425_293">
<rect width="62" height="62" fill="white" transform="translate(179.464 64)"/>
</clipPath>
<clipPath id="clip1_425_293">
<rect width="62" height="61" fill="white" transform="translate(0.463867 65)"/>
</clipPath>
<clipPath id="clip2_425_293">
<rect width="61" height="62" fill="white" transform="translate(90.4639 64)"/>
</clipPath>
</defs>
</svg>
