<svg width="441" height="65" viewBox="0 0 441 65" fill="none" xmlns="http://www.w3.org/2000/svg">
<path d="M62.0527 17.1572V22.5576C62.0527 23.7243 62.1803 24.4489 62.4355 24.7314C62.7819 25.1325 63.306 25.333 64.0078 25.333H64.7188V25.8389H56.7754V25.333H57.4727C58.2565 25.333 58.8171 25.0778 59.1543 24.5674C59.3366 24.2848 59.4277 23.6149 59.4277 22.5576V10.5811C59.4277 9.41439 59.3047 8.68978 59.0586 8.40723C58.7031 8.00618 58.1745 7.80566 57.4727 7.80566H56.7754V7.2998H63.5703C65.2292 7.2998 66.5371 7.47298 67.4941 7.81934C68.4512 8.15658 69.2578 8.73079 69.9141 9.54199C70.5703 10.3532 70.8984 11.3148 70.8984 12.4268C70.8984 13.9398 70.3971 15.1702 69.3945 16.1182C68.401 17.0661 66.9928 17.54 65.1699 17.54C64.7233 17.54 64.2402 17.5081 63.7207 17.4443C63.2012 17.3805 62.6452 17.2848 62.0527 17.1572ZM62.0527 16.3779C62.5358 16.4691 62.9642 16.5374 63.3379 16.583C63.7116 16.6286 64.0306 16.6514 64.2949 16.6514C65.2428 16.6514 66.0586 16.2868 66.7422 15.5576C67.4349 14.8193 67.7812 13.8669 67.7812 12.7002C67.7812 11.8981 67.6172 11.1553 67.2891 10.4717C66.9609 9.77897 66.4961 9.264 65.8945 8.92676C65.293 8.5804 64.6094 8.40723 63.8438 8.40723C63.3789 8.40723 62.7819 8.49382 62.0527 8.66699V16.3779ZM77.0781 6.39746V23.0088C77.0781 23.7926 77.1328 24.3122 77.2422 24.5674C77.3607 24.8226 77.5384 25.0186 77.7754 25.1553C78.0124 25.2829 78.4544 25.3467 79.1016 25.3467V25.8389H72.9629V25.3467C73.5371 25.3467 73.929 25.2874 74.1387 25.1689C74.3483 25.0505 74.5124 24.8545 74.6309 24.5811C74.7493 24.3076 74.8086 23.7835 74.8086 23.0088V11.6338C74.8086 10.221 74.7767 9.35514 74.7129 9.03613C74.6491 8.70801 74.5443 8.4847 74.3984 8.36621C74.2617 8.24772 74.084 8.18848 73.8652 8.18848C73.6283 8.18848 73.3275 8.26139 72.9629 8.40723L72.7305 7.92871L76.4629 6.39746H77.0781ZM86.6895 12.9463C88.5853 12.9463 90.1074 13.6663 91.2559 15.1064C92.2311 16.3369 92.7188 17.7497 92.7188 19.3447C92.7188 20.4658 92.4499 21.6006 91.9121 22.749C91.3743 23.8975 90.6315 24.7633 89.6836 25.3467C88.7448 25.93 87.6966 26.2217 86.5391 26.2217C84.6523 26.2217 83.153 25.4697 82.041 23.9658C81.1022 22.6989 80.6328 21.277 80.6328 19.7002C80.6328 18.5518 80.9154 17.4124 81.4805 16.2822C82.0547 15.1429 82.8066 14.3044 83.7363 13.7666C84.666 13.2197 85.6504 12.9463 86.6895 12.9463ZM86.2656 13.835C85.7826 13.835 85.2949 13.9808 84.8027 14.2725C84.3197 14.555 83.9277 15.0563 83.627 15.7764C83.3262 16.4964 83.1758 17.4215 83.1758 18.5518C83.1758 20.3747 83.5358 21.9469 84.2559 23.2686C84.985 24.5902 85.9421 25.251 87.127 25.251C88.0111 25.251 88.7402 24.8864 89.3145 24.1572C89.8887 23.4281 90.1758 22.1748 90.1758 20.3975C90.1758 18.1735 89.6973 16.4235 88.7402 15.1475C88.0931 14.2725 87.2682 13.835 86.2656 13.835ZM98.2012 9.2002V13.3154H101.127V14.2725H98.2012V22.3936C98.2012 23.2048 98.3151 23.7516 98.543 24.0342C98.7799 24.3167 99.0807 24.458 99.4453 24.458C99.7461 24.458 100.038 24.3669 100.32 24.1846C100.603 23.9932 100.822 23.7152 100.977 23.3506H101.51C101.191 24.2438 100.74 24.9183 100.156 25.374C99.5729 25.8206 98.9714 26.0439 98.3516 26.0439C97.9323 26.0439 97.5221 25.93 97.1211 25.7021C96.7201 25.4652 96.4238 25.1325 96.2324 24.7041C96.041 24.2666 95.9453 23.5967 95.9453 22.6943V14.2725H93.9629V13.8213C94.4642 13.6208 94.9746 13.2835 95.4941 12.8096C96.0228 12.3265 96.4922 11.7568 96.9023 11.1006C97.112 10.7542 97.4036 10.1208 97.7773 9.2002H98.2012ZM108.113 7.2998H113.145L124.479 21.2041V10.5127C124.479 9.37337 124.351 8.66243 124.096 8.37988C123.758 7.99707 123.225 7.80566 122.496 7.80566H121.854V7.2998H128.307V7.80566H127.65C126.867 7.80566 126.311 8.04264 125.982 8.5166C125.782 8.80827 125.682 9.47363 125.682 10.5127V26.1396H125.189L112.967 11.21V22.626C112.967 23.7653 113.09 24.4762 113.336 24.7588C113.682 25.1416 114.215 25.333 114.936 25.333H115.592V25.8389H109.139V25.333H109.781C110.574 25.333 111.135 25.096 111.463 24.6221C111.663 24.3304 111.764 23.665 111.764 22.626V9.7334C111.226 9.10449 110.816 8.68978 110.533 8.48926C110.26 8.28874 109.854 8.10189 109.316 7.92871C109.052 7.84668 108.651 7.80566 108.113 7.80566V7.2998ZM135.717 12.9463C137.613 12.9463 139.135 13.6663 140.283 15.1064C141.258 16.3369 141.746 17.7497 141.746 19.3447C141.746 20.4658 141.477 21.6006 140.939 22.749C140.402 23.8975 139.659 24.7633 138.711 25.3467C137.772 25.93 136.724 26.2217 135.566 26.2217C133.68 26.2217 132.18 25.4697 131.068 23.9658C130.13 22.6989 129.66 21.277 129.66 19.7002C129.66 18.5518 129.943 17.4124 130.508 16.2822C131.082 15.1429 131.834 14.3044 132.764 13.7666C133.693 13.2197 134.678 12.9463 135.717 12.9463ZM135.293 13.835C134.81 13.835 134.322 13.9808 133.83 14.2725C133.347 14.555 132.955 15.0563 132.654 15.7764C132.354 16.4964 132.203 17.4215 132.203 18.5518C132.203 20.3747 132.563 21.9469 133.283 23.2686C134.012 24.5902 134.969 25.251 136.154 25.251C137.038 25.251 137.768 24.8864 138.342 24.1572C138.916 23.4281 139.203 22.1748 139.203 20.3975C139.203 18.1735 138.725 16.4235 137.768 15.1475C137.12 14.2725 136.296 13.835 135.293 13.835ZM151.686 12.9463V17.2119H151.234C150.888 15.8721 150.441 14.9606 149.895 14.4775C149.357 13.9945 148.669 13.7529 147.83 13.7529C147.192 13.7529 146.677 13.9215 146.285 14.2588C145.893 14.596 145.697 14.9697 145.697 15.3799C145.697 15.8903 145.843 16.3278 146.135 16.6924C146.417 17.0661 146.992 17.4626 147.857 17.8818L149.854 18.8525C151.704 19.7549 152.629 20.9443 152.629 22.4209C152.629 23.5602 152.196 24.4808 151.33 25.1826C150.473 25.8753 149.512 26.2217 148.445 26.2217C147.68 26.2217 146.805 26.085 145.82 25.8115C145.52 25.7204 145.273 25.6748 145.082 25.6748C144.872 25.6748 144.708 25.7933 144.59 26.0303H144.139V21.5596H144.59C144.845 22.8356 145.333 23.7972 146.053 24.4443C146.773 25.0915 147.579 25.415 148.473 25.415C149.102 25.415 149.612 25.2327 150.004 24.8682C150.405 24.4945 150.605 24.0479 150.605 23.5283C150.605 22.8994 150.382 22.3708 149.936 21.9424C149.498 21.514 148.618 20.9717 147.297 20.3154C145.975 19.6592 145.109 19.0667 144.699 18.5381C144.289 18.0186 144.084 17.3623 144.084 16.5693C144.084 15.5394 144.435 14.6781 145.137 13.9854C145.848 13.2926 146.764 12.9463 147.885 12.9463C148.377 12.9463 148.974 13.0511 149.676 13.2607C150.141 13.3975 150.451 13.4658 150.605 13.4658C150.751 13.4658 150.865 13.4339 150.947 13.3701C151.029 13.3063 151.125 13.165 151.234 12.9463H151.686ZM166 16.501C164.533 15.2979 163.585 14.3317 163.156 13.6025C162.737 12.8734 162.527 12.1169 162.527 11.333C162.527 10.1299 162.992 9.09538 163.922 8.22949C164.852 7.35449 166.087 6.91699 167.627 6.91699C169.122 6.91699 170.325 7.32259 171.236 8.13379C172.148 8.94499 172.604 9.87012 172.604 10.9092C172.604 11.6019 172.357 12.3083 171.865 13.0283C171.373 13.7484 170.348 14.596 168.789 15.5713C170.393 16.8109 171.455 17.7861 171.975 18.4971C172.667 19.4268 173.014 20.4066 173.014 21.4365C173.014 22.7399 172.517 23.8564 171.523 24.7861C170.53 25.7067 169.227 26.167 167.613 26.167C165.854 26.167 164.482 25.6156 163.498 24.5127C162.714 23.6286 162.322 22.6624 162.322 21.6143C162.322 20.7939 162.596 19.9827 163.143 19.1807C163.699 18.3695 164.651 17.4762 166 16.501ZM168.146 15.0381C169.24 14.0537 169.933 13.279 170.225 12.7139C170.516 12.1396 170.662 11.4925 170.662 10.7725C170.662 9.81543 170.393 9.06803 169.855 8.53027C169.318 7.9834 168.584 7.70996 167.654 7.70996C166.725 7.70996 165.968 7.97884 165.385 8.5166C164.801 9.05436 164.51 9.68327 164.51 10.4033C164.51 10.8773 164.628 11.3512 164.865 11.8252C165.111 12.2992 165.458 12.7503 165.904 13.1787L168.146 15.0381ZM166.643 17.0205C165.886 17.6585 165.326 18.3558 164.961 19.1123C164.596 19.8597 164.414 20.6709 164.414 21.5459C164.414 22.7217 164.733 23.665 165.371 24.376C166.018 25.0778 166.839 25.4287 167.832 25.4287C168.816 25.4287 169.605 25.1507 170.197 24.5947C170.79 24.0387 171.086 23.3643 171.086 22.5713C171.086 21.915 170.913 21.3271 170.566 20.8076C169.919 19.8415 168.611 18.5791 166.643 17.0205ZM175.762 18.5244H182.83V20.5889H175.762V18.5244ZM187.232 9.11816L191.744 6.91699H192.195V22.5713C192.195 23.6104 192.236 24.2575 192.318 24.5127C192.41 24.7679 192.592 24.9639 192.865 25.1006C193.139 25.2373 193.695 25.3148 194.533 25.333V25.8389H187.561V25.333C188.436 25.3148 189.001 25.2419 189.256 25.1143C189.511 24.9775 189.689 24.7998 189.789 24.5811C189.889 24.3532 189.939 23.6833 189.939 22.5713V12.5635C189.939 11.2145 189.894 10.3486 189.803 9.96582C189.739 9.67415 189.62 9.45996 189.447 9.32324C189.283 9.18652 189.083 9.11816 188.846 9.11816C188.508 9.11816 188.039 9.25944 187.438 9.54199L187.232 9.11816ZM200.193 9.11816L204.705 6.91699H205.156V22.5713C205.156 23.6104 205.197 24.2575 205.279 24.5127C205.37 24.7679 205.553 24.9639 205.826 25.1006C206.1 25.2373 206.656 25.3148 207.494 25.333V25.8389H200.521V25.333C201.396 25.3148 201.962 25.2419 202.217 25.1143C202.472 24.9775 202.65 24.7998 202.75 24.5811C202.85 24.3532 202.9 23.6833 202.9 22.5713V12.5635C202.9 11.2145 202.855 10.3486 202.764 9.96582C202.7 9.67415 202.581 9.45996 202.408 9.32324C202.244 9.18652 202.044 9.11816 201.807 9.11816C201.469 9.11816 201 9.25944 200.398 9.54199L200.193 9.11816ZM212.416 30.501V29.8994C213.355 29.5895 214.079 29.1064 214.59 28.4502C215.109 27.8031 215.369 27.1149 215.369 26.3857C215.369 26.2126 215.328 26.0667 215.246 25.9482C215.182 25.8662 215.118 25.8252 215.055 25.8252C214.954 25.8252 214.736 25.9163 214.398 26.0986C214.234 26.1807 214.061 26.2217 213.879 26.2217C213.432 26.2217 213.077 26.0895 212.812 25.8252C212.548 25.5609 212.416 25.1963 212.416 24.7314C212.416 24.2848 212.585 23.902 212.922 23.583C213.268 23.264 213.688 23.1045 214.18 23.1045C214.781 23.1045 215.314 23.3688 215.779 23.8975C216.253 24.417 216.49 25.1097 216.49 25.9756C216.49 26.9144 216.162 27.7848 215.506 28.5869C214.859 29.3981 213.829 30.0361 212.416 30.501ZM240.594 7.2998L240.799 11.6475H240.279C240.179 10.8818 240.042 10.335 239.869 10.0068C239.587 9.47819 239.208 9.09082 238.734 8.84473C238.27 8.58952 237.654 8.46191 236.889 8.46191H234.277V22.626C234.277 23.7653 234.4 24.4762 234.646 24.7588C234.993 25.1416 235.526 25.333 236.246 25.333H236.889V25.8389H229.027V25.333H229.684C230.467 25.333 231.023 25.096 231.352 24.6221C231.552 24.3304 231.652 23.665 231.652 22.626V8.46191H229.424C228.558 8.46191 227.943 8.52572 227.578 8.65332C227.104 8.8265 226.699 9.15918 226.361 9.65137C226.024 10.1436 225.824 10.8089 225.76 11.6475H225.24L225.459 7.2998H240.594ZM242.521 18.0322C242.512 19.8916 242.964 21.3499 243.875 22.4072C244.786 23.4645 245.857 23.9932 247.088 23.9932C247.908 23.9932 248.619 23.7699 249.221 23.3232C249.831 22.8675 250.342 22.0928 250.752 20.999L251.176 21.2725C250.984 22.5212 250.428 23.6605 249.508 24.6904C248.587 25.7113 247.434 26.2217 246.049 26.2217C244.545 26.2217 243.255 25.6383 242.18 24.4717C241.113 23.2959 240.58 21.7191 240.58 19.7412C240.58 17.5993 241.127 15.9313 242.221 14.7373C243.324 13.5342 244.704 12.9326 246.363 12.9326C247.767 12.9326 248.92 13.3975 249.822 14.3271C250.725 15.2477 251.176 16.4827 251.176 18.0322H242.521ZM242.521 17.2393H248.318C248.273 16.4372 248.177 15.8721 248.031 15.5439C247.803 15.0335 247.462 14.6325 247.006 14.3408C246.559 14.0492 246.09 13.9033 245.598 13.9033C244.841 13.9033 244.162 14.1995 243.561 14.792C242.968 15.3753 242.622 16.1911 242.521 17.2393ZM263.494 21.0811C263.157 22.7308 262.496 24.0023 261.512 24.8955C260.527 25.7796 259.438 26.2217 258.244 26.2217C256.822 26.2217 255.583 25.6247 254.525 24.4307C253.468 23.2367 252.939 21.6234 252.939 19.5908C252.939 17.6221 253.523 16.0225 254.689 14.792C255.865 13.5615 257.273 12.9463 258.914 12.9463C260.145 12.9463 261.156 13.2744 261.949 13.9307C262.742 14.5778 263.139 15.2523 263.139 15.9541C263.139 16.3005 263.025 16.583 262.797 16.8018C262.578 17.0114 262.268 17.1162 261.867 17.1162C261.329 17.1162 260.924 16.943 260.65 16.5967C260.495 16.4053 260.391 16.0407 260.336 15.5029C260.29 14.9652 260.108 14.555 259.789 14.2725C259.47 13.999 259.028 13.8623 258.463 13.8623C257.551 13.8623 256.818 14.1995 256.262 14.874C255.523 15.7673 255.154 16.9476 255.154 18.415C255.154 19.9098 255.519 21.2314 256.248 22.3799C256.986 23.5192 257.98 24.0889 259.229 24.0889C260.122 24.0889 260.924 23.7835 261.635 23.1729C262.136 22.7536 262.624 21.9925 263.098 20.8896L263.494 21.0811ZM268.977 6.39746V15.5576C269.988 14.4456 270.79 13.7347 271.383 13.4248C271.975 13.1058 272.568 12.9463 273.16 12.9463C273.871 12.9463 274.482 13.1423 274.992 13.5342C275.503 13.9261 275.881 14.5413 276.127 15.3799C276.3 15.9632 276.387 17.0296 276.387 18.5791V23.0088C276.387 23.8018 276.451 24.3441 276.578 24.6357C276.669 24.8545 276.824 25.0277 277.043 25.1553C277.262 25.2829 277.663 25.3467 278.246 25.3467V25.8389H272.094V25.3467H272.381C272.964 25.3467 273.37 25.2601 273.598 25.0869C273.826 24.9046 273.985 24.6403 274.076 24.2939C274.104 24.1481 274.117 23.7197 274.117 23.0088V18.5791C274.117 17.2119 274.044 16.3141 273.898 15.8857C273.762 15.4574 273.538 15.1383 273.229 14.9287C272.919 14.71 272.545 14.6006 272.107 14.6006C271.661 14.6006 271.196 14.7191 270.713 14.9561C270.23 15.193 269.651 15.6715 268.977 16.3916V23.0088C268.977 23.8656 269.022 24.3988 269.113 24.6084C269.214 24.818 269.391 24.9958 269.646 25.1416C269.911 25.2783 270.362 25.3467 271 25.3467V25.8389H264.793V25.3467C265.349 25.3467 265.786 25.2601 266.105 25.0869C266.288 24.9958 266.434 24.8226 266.543 24.5674C266.652 24.3122 266.707 23.7926 266.707 23.0088V11.6748C266.707 10.2438 266.671 9.36426 266.598 9.03613C266.534 8.70801 266.429 8.4847 266.283 8.36621C266.146 8.24772 265.96 8.18848 265.723 8.18848C265.531 8.18848 265.221 8.26139 264.793 8.40723L264.602 7.92871L268.348 6.39746H268.977ZM294.529 7.2998L282.348 24.7178H289.949C291.116 24.7178 292.009 24.4626 292.629 23.9521C293.258 23.4417 293.814 22.4072 294.297 20.8486L294.748 20.9307L293.873 25.8389H278.779V25.333L290.674 8.40723H284.74C283.756 8.40723 283.04 8.5166 282.594 8.73535C282.156 8.94499 281.819 9.25488 281.582 9.66504C281.354 10.0661 281.145 10.8226 280.953 11.9346H280.434L280.816 7.2998H294.529ZM302.541 12.9463C304.437 12.9463 305.959 13.6663 307.107 15.1064C308.083 16.3369 308.57 17.7497 308.57 19.3447C308.57 20.4658 308.301 21.6006 307.764 22.749C307.226 23.8975 306.483 24.7633 305.535 25.3467C304.596 25.93 303.548 26.2217 302.391 26.2217C300.504 26.2217 299.005 25.4697 297.893 23.9658C296.954 22.6989 296.484 21.277 296.484 19.7002C296.484 18.5518 296.767 17.4124 297.332 16.2822C297.906 15.1429 298.658 14.3044 299.588 13.7666C300.518 13.2197 301.502 12.9463 302.541 12.9463ZM302.117 13.835C301.634 13.835 301.146 13.9808 300.654 14.2725C300.171 14.555 299.779 15.0563 299.479 15.7764C299.178 16.4964 299.027 17.4215 299.027 18.5518C299.027 20.3747 299.387 21.9469 300.107 23.2686C300.837 24.5902 301.794 25.251 302.979 25.251C303.863 25.251 304.592 24.8864 305.166 24.1572C305.74 23.4281 306.027 22.1748 306.027 20.3975C306.027 18.1735 305.549 16.4235 304.592 15.1475C303.945 14.2725 303.12 13.835 302.117 13.835ZM314.066 15.5986C315.534 13.8304 316.933 12.9463 318.264 12.9463C318.947 12.9463 319.535 13.1195 320.027 13.4658C320.52 13.8031 320.911 14.3636 321.203 15.1475C321.404 15.6943 321.504 16.5329 321.504 17.6631V23.0088C321.504 23.8018 321.568 24.3395 321.695 24.6221C321.796 24.8499 321.955 25.0277 322.174 25.1553C322.402 25.2829 322.816 25.3467 323.418 25.3467V25.8389H317.225V25.3467H317.484C318.068 25.3467 318.473 25.2601 318.701 25.0869C318.938 24.9046 319.102 24.6403 319.193 24.2939C319.23 24.1572 319.248 23.7288 319.248 23.0088V17.8818C319.248 16.7425 319.098 15.9176 318.797 15.4072C318.505 14.8877 318.008 14.6279 317.307 14.6279C316.222 14.6279 315.142 15.2204 314.066 16.4053V23.0088C314.066 23.8564 314.117 24.3805 314.217 24.5811C314.344 24.8454 314.518 25.0413 314.736 25.1689C314.964 25.2874 315.42 25.3467 316.104 25.3467V25.8389H309.91V25.3467H310.184C310.822 25.3467 311.25 25.1872 311.469 24.8682C311.697 24.54 311.811 23.9202 311.811 23.0088V18.3604C311.811 16.8564 311.774 15.9404 311.701 15.6123C311.637 15.2842 311.533 15.0609 311.387 14.9424C311.25 14.8239 311.063 14.7646 310.826 14.7646C310.571 14.7646 310.266 14.833 309.91 14.9697L309.705 14.4775L313.479 12.9463H314.066V15.5986ZM326.521 18.0322C326.512 19.8916 326.964 21.3499 327.875 22.4072C328.786 23.4645 329.857 23.9932 331.088 23.9932C331.908 23.9932 332.619 23.7699 333.221 23.3232C333.831 22.8675 334.342 22.0928 334.752 20.999L335.176 21.2725C334.984 22.5212 334.428 23.6605 333.508 24.6904C332.587 25.7113 331.434 26.2217 330.049 26.2217C328.545 26.2217 327.255 25.6383 326.18 24.4717C325.113 23.2959 324.58 21.7191 324.58 19.7412C324.58 17.5993 325.127 15.9313 326.221 14.7373C327.324 13.5342 328.704 12.9326 330.363 12.9326C331.767 12.9326 332.92 13.3975 333.822 14.3271C334.725 15.2477 335.176 16.4827 335.176 18.0322H326.521ZM326.521 17.2393H332.318C332.273 16.4372 332.177 15.8721 332.031 15.5439C331.803 15.0335 331.462 14.6325 331.006 14.3408C330.559 14.0492 330.09 13.9033 329.598 13.9033C328.841 13.9033 328.162 14.1995 327.561 14.792C326.968 15.3753 326.622 16.1911 326.521 17.2393ZM351.623 25.333V25.8389H343.68V25.333H344.336C345.102 25.333 345.658 25.1097 346.004 24.6631C346.223 24.3714 346.332 23.6696 346.332 22.5576V10.5811C346.332 9.64225 346.273 9.02246 346.154 8.72168C346.063 8.49382 345.876 8.29785 345.594 8.13379C345.193 7.91504 344.773 7.80566 344.336 7.80566H343.68V7.2998H351.623V7.80566H350.953C350.197 7.80566 349.645 8.02897 349.299 8.47559C349.071 8.76725 348.957 9.46908 348.957 10.5811V22.5576C348.957 23.4964 349.016 24.1162 349.135 24.417C349.226 24.6449 349.417 24.8408 349.709 25.0049C350.101 25.2236 350.516 25.333 350.953 25.333H351.623ZM360.947 25.333V25.8389H353.004V25.333H353.66C354.426 25.333 354.982 25.1097 355.328 24.6631C355.547 24.3714 355.656 23.6696 355.656 22.5576V10.5811C355.656 9.64225 355.597 9.02246 355.479 8.72168C355.387 8.49382 355.201 8.29785 354.918 8.13379C354.517 7.91504 354.098 7.80566 353.66 7.80566H353.004V7.2998H360.947V7.80566H360.277C359.521 7.80566 358.969 8.02897 358.623 8.47559C358.395 8.76725 358.281 9.46908 358.281 10.5811V22.5576C358.281 23.4964 358.34 24.1162 358.459 24.417C358.55 24.6449 358.742 24.8408 359.033 25.0049C359.425 25.2236 359.84 25.333 360.277 25.333H360.947ZM363.135 30.501V29.8994C364.074 29.5895 364.798 29.1064 365.309 28.4502C365.828 27.8031 366.088 27.1149 366.088 26.3857C366.088 26.2126 366.047 26.0667 365.965 25.9482C365.901 25.8662 365.837 25.8252 365.773 25.8252C365.673 25.8252 365.454 25.9163 365.117 26.0986C364.953 26.1807 364.78 26.2217 364.598 26.2217C364.151 26.2217 363.796 26.0895 363.531 25.8252C363.267 25.5609 363.135 25.1963 363.135 24.7314C363.135 24.2848 363.303 23.902 363.641 23.583C363.987 23.264 364.406 23.1045 364.898 23.1045C365.5 23.1045 366.033 23.3688 366.498 23.8975C366.972 24.417 367.209 25.1097 367.209 25.9756C367.209 26.9144 366.881 27.7848 366.225 28.5869C365.577 29.3981 364.548 30.0361 363.135 30.501ZM73.4961 38.876L73.9746 44.7275H73.4961C73.013 43.2692 72.3887 42.1709 71.623 41.4326C70.5202 40.3662 69.1029 39.833 67.3711 39.833C65.0104 39.833 63.2148 40.7673 61.9844 42.6357C60.9544 44.2126 60.4395 46.0902 60.4395 48.2686C60.4395 50.0368 60.7812 51.6501 61.4648 53.1084C62.1484 54.5667 63.0417 55.6377 64.1445 56.3213C65.2565 56.9958 66.3958 57.333 67.5625 57.333C68.2461 57.333 68.9069 57.2464 69.5449 57.0732C70.1829 56.9001 70.7982 56.6449 71.3906 56.3076V50.9482C71.3906 50.0186 71.3177 49.4124 71.1719 49.1299C71.0352 48.8382 70.8164 48.6195 70.5156 48.4736C70.224 48.3187 69.7044 48.2412 68.957 48.2412V47.7217H76.1348V48.2412H75.793C75.082 48.2412 74.5944 48.4782 74.3301 48.9521C74.1478 49.2894 74.0566 49.9548 74.0566 50.9482V56.6221C73.0085 57.1872 71.974 57.6019 70.9531 57.8662C69.9323 58.1305 68.7975 58.2627 67.5488 58.2627C63.9668 58.2627 61.2461 57.1143 59.3867 54.8174C57.9922 53.0947 57.2949 51.1077 57.2949 48.8564C57.2949 47.2249 57.6868 45.6618 58.4707 44.167C59.4004 42.3896 60.6764 41.0225 62.2988 40.0654C63.6569 39.2725 65.2611 38.876 67.1113 38.876C67.7858 38.876 68.3965 38.9307 68.9434 39.04C69.4993 39.1494 70.2832 39.391 71.2949 39.7646C71.8053 39.9561 72.1471 40.0518 72.3203 40.0518C72.4935 40.0518 72.6393 39.9743 72.7578 39.8193C72.8854 39.6553 72.9629 39.3408 72.9902 38.876H73.4961ZM81.084 44.9463V47.7627C82.1322 45.8851 83.2077 44.9463 84.3105 44.9463C84.8118 44.9463 85.2266 45.1012 85.5547 45.4111C85.8828 45.7119 86.0469 46.0628 86.0469 46.4639C86.0469 46.8193 85.9284 47.1201 85.6914 47.3662C85.4544 47.6123 85.1719 47.7354 84.8438 47.7354C84.5247 47.7354 84.1647 47.5804 83.7637 47.2705C83.3717 46.9515 83.0801 46.792 82.8887 46.792C82.7246 46.792 82.5469 46.8831 82.3555 47.0654C81.9453 47.4391 81.5215 48.0544 81.084 48.9111V54.9131C81.084 55.6058 81.1706 56.1299 81.3438 56.4854C81.4622 56.7314 81.6719 56.9365 81.9727 57.1006C82.2734 57.2646 82.7064 57.3467 83.2715 57.3467V57.8389H76.8594V57.3467C77.4974 57.3467 77.9714 57.2464 78.2812 57.0459C78.5091 56.9001 78.6686 56.6676 78.7598 56.3486C78.8053 56.1937 78.8281 55.7516 78.8281 55.0225V50.1689C78.8281 48.7106 78.7962 47.8447 78.7324 47.5713C78.6777 47.2887 78.5684 47.0837 78.4043 46.9561C78.2493 46.8285 78.0534 46.7646 77.8164 46.7646C77.5339 46.7646 77.2148 46.833 76.8594 46.9697L76.7227 46.4775L80.5098 44.9463H81.084ZM88.8496 50.0322C88.8405 51.8916 89.2917 53.3499 90.2031 54.4072C91.1146 55.4645 92.1855 55.9932 93.416 55.9932C94.2363 55.9932 94.9473 55.7699 95.5488 55.3232C96.1595 54.8675 96.6699 54.0928 97.0801 52.999L97.5039 53.2725C97.3125 54.5212 96.7565 55.6605 95.8359 56.6904C94.9154 57.7113 93.7624 58.2217 92.377 58.2217C90.873 58.2217 89.5833 57.6383 88.5078 56.4717C87.4414 55.2959 86.9082 53.7191 86.9082 51.7412C86.9082 49.5993 87.4551 47.9313 88.5488 46.7373C89.6517 45.5342 91.0326 44.9326 92.6914 44.9326C94.0951 44.9326 95.248 45.3975 96.1504 46.3271C97.0527 47.2477 97.5039 48.4827 97.5039 50.0322H88.8496ZM88.8496 49.2393H94.6465C94.6009 48.4372 94.5052 47.8721 94.3594 47.5439C94.1315 47.0335 93.7897 46.6325 93.334 46.3408C92.8874 46.0492 92.418 45.9033 91.9258 45.9033C91.1693 45.9033 90.4902 46.1995 89.8887 46.792C89.2962 47.3753 88.9499 48.1911 88.8496 49.2393ZM106.281 56.0342C104.996 57.0277 104.189 57.6019 103.861 57.7568C103.369 57.9847 102.845 58.0986 102.289 58.0986C101.423 58.0986 100.708 57.8024 100.143 57.21C99.5866 56.6175 99.3086 55.8382 99.3086 54.8721C99.3086 54.2614 99.4453 53.7327 99.7188 53.2861C100.092 52.6663 100.74 52.083 101.66 51.5361C102.59 50.9893 104.13 50.3239 106.281 49.54V49.0479C106.281 47.7992 106.081 46.9424 105.68 46.4775C105.288 46.0127 104.714 45.7803 103.957 45.7803C103.383 45.7803 102.927 45.9352 102.59 46.2451C102.243 46.555 102.07 46.9105 102.07 47.3115L102.098 48.1045C102.098 48.5238 101.988 48.8473 101.77 49.0752C101.56 49.3031 101.282 49.417 100.936 49.417C100.598 49.417 100.32 49.2985 100.102 49.0615C99.8919 48.8245 99.7871 48.501 99.7871 48.0908C99.7871 47.307 100.188 46.5869 100.99 45.9307C101.792 45.2744 102.918 44.9463 104.367 44.9463C105.479 44.9463 106.391 45.1331 107.102 45.5068C107.639 45.7894 108.036 46.2314 108.291 46.833C108.455 47.2249 108.537 48.027 108.537 49.2393V53.4912C108.537 54.6852 108.56 55.4189 108.605 55.6924C108.651 55.9567 108.724 56.1344 108.824 56.2256C108.934 56.3167 109.057 56.3623 109.193 56.3623C109.339 56.3623 109.467 56.3304 109.576 56.2666C109.768 56.1481 110.137 55.8154 110.684 55.2686V56.0342C109.663 57.4014 108.688 58.085 107.758 58.085C107.311 58.085 106.956 57.93 106.691 57.6201C106.427 57.3102 106.29 56.7816 106.281 56.0342ZM106.281 55.1455V50.374C104.905 50.9209 104.016 51.3083 103.615 51.5361C102.895 51.9372 102.38 52.3564 102.07 52.7939C101.76 53.2314 101.605 53.71 101.605 54.2295C101.605 54.8857 101.801 55.4326 102.193 55.8701C102.585 56.2985 103.036 56.5127 103.547 56.5127C104.24 56.5127 105.151 56.057 106.281 55.1455ZM115.264 41.2002V45.3154H118.189V46.2725H115.264V54.3936C115.264 55.2048 115.378 55.7516 115.605 56.0342C115.842 56.3167 116.143 56.458 116.508 56.458C116.809 56.458 117.1 56.3669 117.383 56.1846C117.665 55.9932 117.884 55.7152 118.039 55.3506H118.572C118.253 56.2438 117.802 56.9183 117.219 57.374C116.635 57.8206 116.034 58.0439 115.414 58.0439C114.995 58.0439 114.585 57.93 114.184 57.7021C113.783 57.4652 113.486 57.1325 113.295 56.7041C113.104 56.2666 113.008 55.5967 113.008 54.6943V46.2725H111.025V45.8213C111.527 45.6208 112.037 45.2835 112.557 44.8096C113.085 44.3265 113.555 43.7568 113.965 43.1006C114.174 42.7542 114.466 42.1208 114.84 41.2002H115.264ZM121.525 50.0322C121.516 51.8916 121.967 53.3499 122.879 54.4072C123.79 55.4645 124.861 55.9932 126.092 55.9932C126.912 55.9932 127.623 55.7699 128.225 55.3232C128.835 54.8675 129.346 54.0928 129.756 52.999L130.18 53.2725C129.988 54.5212 129.432 55.6605 128.512 56.6904C127.591 57.7113 126.438 58.2217 125.053 58.2217C123.549 58.2217 122.259 57.6383 121.184 56.4717C120.117 55.2959 119.584 53.7191 119.584 51.7412C119.584 49.5993 120.131 47.9313 121.225 46.7373C122.327 45.5342 123.708 44.9326 125.367 44.9326C126.771 44.9326 127.924 45.3975 128.826 46.3271C129.729 47.2477 130.18 48.4827 130.18 50.0322H121.525ZM121.525 49.2393H127.322C127.277 48.4372 127.181 47.8721 127.035 47.5439C126.807 47.0335 126.465 46.6325 126.01 46.3408C125.563 46.0492 125.094 45.9033 124.602 45.9033C123.845 45.9033 123.166 46.1995 122.564 46.792C121.972 47.3753 121.626 48.1911 121.525 49.2393ZM135.525 44.9463V47.7627C136.574 45.8851 137.649 44.9463 138.752 44.9463C139.253 44.9463 139.668 45.1012 139.996 45.4111C140.324 45.7119 140.488 46.0628 140.488 46.4639C140.488 46.8193 140.37 47.1201 140.133 47.3662C139.896 47.6123 139.613 47.7354 139.285 47.7354C138.966 47.7354 138.606 47.5804 138.205 47.2705C137.813 46.9515 137.521 46.792 137.33 46.792C137.166 46.792 136.988 46.8831 136.797 47.0654C136.387 47.4391 135.963 48.0544 135.525 48.9111V54.9131C135.525 55.6058 135.612 56.1299 135.785 56.4854C135.904 56.7314 136.113 56.9365 136.414 57.1006C136.715 57.2646 137.148 57.3467 137.713 57.3467V57.8389H131.301V57.3467C131.939 57.3467 132.413 57.2464 132.723 57.0459C132.951 56.9001 133.11 56.6676 133.201 56.3486C133.247 56.1937 133.27 55.7516 133.27 55.0225V50.1689C133.27 48.7106 133.238 47.8447 133.174 47.5713C133.119 47.2887 133.01 47.0837 132.846 46.9561C132.691 46.8285 132.495 46.7646 132.258 46.7646C131.975 46.7646 131.656 46.833 131.301 46.9697L131.164 46.4775L134.951 44.9463H135.525ZM146.941 39.2998H151.973L163.307 53.2041V42.5127C163.307 41.3734 163.179 40.6624 162.924 40.3799C162.587 39.9971 162.053 39.8057 161.324 39.8057H160.682V39.2998H167.135V39.8057H166.479C165.695 39.8057 165.139 40.0426 164.811 40.5166C164.61 40.8083 164.51 41.4736 164.51 42.5127V58.1396H164.018L151.795 43.21V54.626C151.795 55.7653 151.918 56.4762 152.164 56.7588C152.51 57.1416 153.044 57.333 153.764 57.333H154.42V57.8389H147.967V57.333H148.609C149.402 57.333 149.963 57.096 150.291 56.6221C150.492 56.3304 150.592 55.665 150.592 54.626V41.7334C150.054 41.1045 149.644 40.6898 149.361 40.4893C149.088 40.2887 148.682 40.1019 148.145 39.9287C147.88 39.8467 147.479 39.8057 146.941 39.8057V39.2998ZM174.545 44.9463C176.441 44.9463 177.963 45.6663 179.111 47.1064C180.087 48.3369 180.574 49.7497 180.574 51.3447C180.574 52.4658 180.305 53.6006 179.768 54.749C179.23 55.8975 178.487 56.7633 177.539 57.3467C176.6 57.93 175.552 58.2217 174.395 58.2217C172.508 58.2217 171.008 57.4697 169.896 55.9658C168.958 54.6989 168.488 53.277 168.488 51.7002C168.488 50.5518 168.771 49.4124 169.336 48.2822C169.91 47.1429 170.662 46.3044 171.592 45.7666C172.521 45.2197 173.506 44.9463 174.545 44.9463ZM174.121 45.835C173.638 45.835 173.15 45.9808 172.658 46.2725C172.175 46.555 171.783 47.0563 171.482 47.7764C171.182 48.4964 171.031 49.4215 171.031 50.5518C171.031 52.3747 171.391 53.9469 172.111 55.2686C172.84 56.5902 173.798 57.251 174.982 57.251C175.867 57.251 176.596 56.8864 177.17 56.1572C177.744 55.4281 178.031 54.1748 178.031 52.3975C178.031 50.1735 177.553 48.4235 176.596 47.1475C175.949 46.2725 175.124 45.835 174.121 45.835ZM185.605 38.3975C185.988 38.3975 186.312 38.5342 186.576 38.8076C186.85 39.0719 186.986 39.3955 186.986 39.7783C186.986 40.1611 186.85 40.4893 186.576 40.7627C186.312 41.0361 185.988 41.1729 185.605 41.1729C185.223 41.1729 184.895 41.0361 184.621 40.7627C184.348 40.4893 184.211 40.1611 184.211 39.7783C184.211 39.3955 184.343 39.0719 184.607 38.8076C184.881 38.5342 185.214 38.3975 185.605 38.3975ZM186.74 44.9463V55.0088C186.74 55.7926 186.795 56.3167 186.904 56.5811C187.023 56.8363 187.191 57.0277 187.41 57.1553C187.638 57.2829 188.048 57.3467 188.641 57.3467V57.8389H182.557V57.3467C183.167 57.3467 183.577 57.2874 183.787 57.1689C183.997 57.0505 184.161 56.8545 184.279 56.5811C184.407 56.3076 184.471 55.7835 184.471 55.0088V50.1826C184.471 48.8245 184.43 47.945 184.348 47.5439C184.284 47.2523 184.184 47.0518 184.047 46.9424C183.91 46.8239 183.723 46.7646 183.486 46.7646C183.231 46.7646 182.921 46.833 182.557 46.9697L182.365 46.4775L186.139 44.9463H186.74ZM199.059 56.4307C198.448 57.0687 197.851 57.529 197.268 57.8115C196.684 58.085 196.055 58.2217 195.381 58.2217C194.014 58.2217 192.82 57.652 191.799 56.5127C190.778 55.3643 190.268 53.8923 190.268 52.0967C190.268 50.3011 190.833 48.6605 191.963 47.1748C193.093 45.68 194.547 44.9326 196.324 44.9326C197.427 44.9326 198.339 45.2835 199.059 45.9854V43.6748C199.059 42.2438 199.022 41.3643 198.949 41.0361C198.885 40.708 198.781 40.4847 198.635 40.3662C198.489 40.2477 198.307 40.1885 198.088 40.1885C197.851 40.1885 197.536 40.2614 197.145 40.4072L196.967 39.9287L200.699 38.3975H201.314V52.876C201.314 54.3434 201.346 55.2412 201.41 55.5693C201.483 55.8883 201.592 56.1117 201.738 56.2393C201.893 56.3669 202.071 56.4307 202.271 56.4307C202.518 56.4307 202.846 56.3532 203.256 56.1982L203.406 56.6768L199.688 58.2217H199.059V56.4307ZM199.059 55.4736V49.0205C199.004 48.4007 198.84 47.8356 198.566 47.3252C198.293 46.8148 197.928 46.432 197.473 46.1768C197.026 45.9124 196.589 45.7803 196.16 45.7803C195.358 45.7803 194.643 46.1403 194.014 46.8604C193.184 47.8083 192.77 49.1937 192.77 51.0166C192.77 52.8577 193.171 54.2705 193.973 55.2549C194.775 56.2301 195.668 56.7178 196.652 56.7178C197.482 56.7178 198.284 56.3031 199.059 55.4736ZM211.309 56.0342C210.023 57.0277 209.217 57.6019 208.889 57.7568C208.396 57.9847 207.872 58.0986 207.316 58.0986C206.451 58.0986 205.735 57.8024 205.17 57.21C204.614 56.6175 204.336 55.8382 204.336 54.8721C204.336 54.2614 204.473 53.7327 204.746 53.2861C205.12 52.6663 205.767 52.083 206.688 51.5361C207.617 50.9893 209.158 50.3239 211.309 49.54V49.0479C211.309 47.7992 211.108 46.9424 210.707 46.4775C210.315 46.0127 209.741 45.7803 208.984 45.7803C208.41 45.7803 207.954 45.9352 207.617 46.2451C207.271 46.555 207.098 46.9105 207.098 47.3115L207.125 48.1045C207.125 48.5238 207.016 48.8473 206.797 49.0752C206.587 49.3031 206.309 49.417 205.963 49.417C205.626 49.417 205.348 49.2985 205.129 49.0615C204.919 48.8245 204.814 48.501 204.814 48.0908C204.814 47.307 205.215 46.5869 206.018 45.9307C206.82 45.2744 207.945 44.9463 209.395 44.9463C210.507 44.9463 211.418 45.1331 212.129 45.5068C212.667 45.7894 213.063 46.2314 213.318 46.833C213.482 47.2249 213.564 48.027 213.564 49.2393V53.4912C213.564 54.6852 213.587 55.4189 213.633 55.6924C213.678 55.9567 213.751 56.1344 213.852 56.2256C213.961 56.3167 214.084 56.3623 214.221 56.3623C214.367 56.3623 214.494 56.3304 214.604 56.2666C214.795 56.1481 215.164 55.8154 215.711 55.2686V56.0342C214.69 57.4014 213.715 58.085 212.785 58.085C212.339 58.085 211.983 57.93 211.719 57.6201C211.454 57.3102 211.318 56.7816 211.309 56.0342ZM211.309 55.1455V50.374C209.932 50.9209 209.044 51.3083 208.643 51.5361C207.923 51.9372 207.408 52.3564 207.098 52.7939C206.788 53.2314 206.633 53.71 206.633 54.2295C206.633 54.8857 206.829 55.4326 207.221 55.8701C207.613 56.2985 208.064 56.5127 208.574 56.5127C209.267 56.5127 210.178 56.057 211.309 55.1455ZM235.617 54.2705L234.318 57.8389H223.381V57.333C226.598 54.3981 228.863 52.001 230.176 50.1416C231.488 48.2822 232.145 46.5824 232.145 45.042C232.145 43.8662 231.785 42.9001 231.064 42.1436C230.344 41.387 229.483 41.0088 228.48 41.0088C227.569 41.0088 226.749 41.2777 226.02 41.8154C225.299 42.3441 224.766 43.1234 224.42 44.1533H223.914C224.142 42.4671 224.725 41.1729 225.664 40.2705C226.612 39.3682 227.792 38.917 229.205 38.917C230.709 38.917 231.962 39.4001 232.965 40.3662C233.977 41.3324 234.482 42.4717 234.482 43.7842C234.482 44.723 234.264 45.6618 233.826 46.6006C233.152 48.0771 232.058 49.6403 230.545 51.29C228.275 53.7692 226.858 55.264 226.293 55.7744H231.133C232.117 55.7744 232.805 55.738 233.197 55.665C233.598 55.5921 233.958 55.4463 234.277 55.2275C234.596 54.9997 234.874 54.6807 235.111 54.2705H235.617ZM237.791 48.6787C237.791 46.5641 238.11 44.7458 238.748 43.2236C239.386 41.6924 240.234 40.5531 241.291 39.8057C242.111 39.2132 242.959 38.917 243.834 38.917C245.256 38.917 246.532 39.6416 247.662 41.0908C249.075 42.8864 249.781 45.32 249.781 48.3916C249.781 50.5426 249.471 52.3701 248.852 53.874C248.232 55.3779 247.439 56.4717 246.473 57.1553C245.516 57.8298 244.59 58.167 243.697 58.167C241.929 58.167 240.457 57.1234 239.281 55.0361C238.288 53.277 237.791 51.1579 237.791 48.6787ZM240.471 49.0205C240.471 51.5726 240.785 53.6553 241.414 55.2686C241.934 56.6266 242.708 57.3057 243.738 57.3057C244.23 57.3057 244.741 57.0869 245.27 56.6494C245.798 56.2028 246.199 55.46 246.473 54.4209C246.892 52.8532 247.102 50.6429 247.102 47.79C247.102 45.6755 246.883 43.9118 246.445 42.499C246.117 41.4508 245.693 40.708 245.174 40.2705C244.8 39.9697 244.349 39.8193 243.82 39.8193C243.201 39.8193 242.649 40.0973 242.166 40.6533C241.51 41.4098 241.063 42.5993 240.826 44.2217C240.589 45.8441 240.471 47.4437 240.471 49.0205ZM254.061 41.1182L258.572 38.917H259.023V54.5713C259.023 55.6104 259.064 56.2575 259.146 56.5127C259.238 56.7679 259.42 56.9639 259.693 57.1006C259.967 57.2373 260.523 57.3148 261.361 57.333V57.8389H254.389V57.333C255.264 57.3148 255.829 57.2419 256.084 57.1143C256.339 56.9775 256.517 56.7998 256.617 56.5811C256.717 56.3532 256.768 55.6833 256.768 54.5713V44.5635C256.768 43.2145 256.722 42.3486 256.631 41.9658C256.567 41.6742 256.449 41.46 256.275 41.3232C256.111 41.1865 255.911 41.1182 255.674 41.1182C255.337 41.1182 254.867 41.2594 254.266 41.542L254.061 41.1182ZM266.201 42.8271C266.73 41.5785 267.395 40.6169 268.197 39.9424C269.008 39.2588 270.016 38.917 271.219 38.917C272.704 38.917 273.844 39.4001 274.637 40.3662C275.238 41.0863 275.539 41.8564 275.539 42.6768C275.539 44.0257 274.691 45.4202 272.996 46.8604C274.135 47.307 274.997 47.945 275.58 48.7744C276.163 49.6038 276.455 50.5791 276.455 51.7002C276.455 53.3044 275.945 54.6943 274.924 55.8701C273.593 57.4014 271.665 58.167 269.141 58.167C267.892 58.167 267.04 58.012 266.584 57.7021C266.137 57.3923 265.914 57.0596 265.914 56.7041C265.914 56.4398 266.019 56.2074 266.229 56.0068C266.447 55.8063 266.707 55.7061 267.008 55.7061C267.236 55.7061 267.468 55.7425 267.705 55.8154C267.86 55.861 268.211 56.0296 268.758 56.3213C269.305 56.6038 269.683 56.7725 269.893 56.8271C270.23 56.9274 270.59 56.9775 270.973 56.9775C271.902 56.9775 272.709 56.6175 273.393 55.8975C274.085 55.1774 274.432 54.3252 274.432 53.3408C274.432 52.6208 274.272 51.9189 273.953 51.2354C273.716 50.7249 273.456 50.3376 273.174 50.0732C272.782 49.7087 272.244 49.3805 271.561 49.0889C270.877 48.7881 270.18 48.6377 269.469 48.6377H269.031V48.2275C269.751 48.1364 270.471 47.8766 271.191 47.4482C271.921 47.0199 272.449 46.5049 272.777 45.9033C273.105 45.3018 273.27 44.641 273.27 43.9209C273.27 42.9821 272.973 42.2256 272.381 41.6514C271.798 41.068 271.068 40.7764 270.193 40.7764C268.781 40.7764 267.6 41.5329 266.652 43.0459L266.201 42.8271ZM282.061 41.1182L286.572 38.917H287.023V54.5713C287.023 55.6104 287.064 56.2575 287.146 56.5127C287.238 56.7679 287.42 56.9639 287.693 57.1006C287.967 57.2373 288.523 57.3148 289.361 57.333V57.8389H282.389V57.333C283.264 57.3148 283.829 57.2419 284.084 57.1143C284.339 56.9775 284.517 56.7998 284.617 56.5811C284.717 56.3532 284.768 55.6833 284.768 54.5713V44.5635C284.768 43.2145 284.722 42.3486 284.631 41.9658C284.567 41.6742 284.449 41.46 284.275 41.3232C284.111 41.1865 283.911 41.1182 283.674 41.1182C283.337 41.1182 282.867 41.2594 282.266 41.542L282.061 41.1182ZM293.791 48.6787C293.791 46.5641 294.11 44.7458 294.748 43.2236C295.386 41.6924 296.234 40.5531 297.291 39.8057C298.111 39.2132 298.959 38.917 299.834 38.917C301.256 38.917 302.532 39.6416 303.662 41.0908C305.075 42.8864 305.781 45.32 305.781 48.3916C305.781 50.5426 305.471 52.3701 304.852 53.874C304.232 55.3779 303.439 56.4717 302.473 57.1553C301.516 57.8298 300.59 58.167 299.697 58.167C297.929 58.167 296.457 57.1234 295.281 55.0361C294.288 53.277 293.791 51.1579 293.791 48.6787ZM296.471 49.0205C296.471 51.5726 296.785 53.6553 297.414 55.2686C297.934 56.6266 298.708 57.3057 299.738 57.3057C300.23 57.3057 300.741 57.0869 301.27 56.6494C301.798 56.2028 302.199 55.46 302.473 54.4209C302.892 52.8532 303.102 50.6429 303.102 47.79C303.102 45.6755 302.883 43.9118 302.445 42.499C302.117 41.4508 301.693 40.708 301.174 40.2705C300.8 39.9697 300.349 39.8193 299.82 39.8193C299.201 39.8193 298.649 40.0973 298.166 40.6533C297.51 41.4098 297.063 42.5993 296.826 44.2217C296.589 45.8441 296.471 47.4437 296.471 49.0205ZM308.283 62.501V61.8994C309.222 61.5895 309.947 61.1064 310.457 60.4502C310.977 59.8031 311.236 59.1149 311.236 58.3857C311.236 58.2126 311.195 58.0667 311.113 57.9482C311.049 57.8662 310.986 57.8252 310.922 57.8252C310.822 57.8252 310.603 57.9163 310.266 58.0986C310.102 58.1807 309.928 58.2217 309.746 58.2217C309.299 58.2217 308.944 58.0895 308.68 57.8252C308.415 57.5609 308.283 57.1963 308.283 56.7314C308.283 56.2848 308.452 55.902 308.789 55.583C309.135 55.264 309.555 55.1045 310.047 55.1045C310.648 55.1045 311.182 55.3688 311.646 55.8975C312.12 56.417 312.357 57.1097 312.357 57.9756C312.357 58.9144 312.029 59.7848 311.373 60.5869C310.726 61.3981 309.696 62.0361 308.283 62.501ZM334.137 39.8057V39.2998H340.699V39.8057H340.002C339.273 39.8057 338.712 40.111 338.32 40.7217C338.129 41.0042 338.033 41.6605 338.033 42.6904V50.21C338.033 52.0693 337.846 53.514 337.473 54.5439C337.108 55.5648 336.383 56.4443 335.299 57.1826C334.223 57.9118 332.756 58.2764 330.896 58.2764C328.873 58.2764 327.337 57.9255 326.289 57.2236C325.241 56.5218 324.498 55.5785 324.061 54.3936C323.769 53.5824 323.623 52.0602 323.623 49.8271V42.5811C323.623 41.4417 323.464 40.6943 323.145 40.3389C322.835 39.9834 322.329 39.8057 321.627 39.8057H320.93V39.2998H328.941V39.8057H328.23C327.465 39.8057 326.918 40.0472 326.59 40.5303C326.362 40.8584 326.248 41.542 326.248 42.5811V50.6611C326.248 51.3812 326.312 52.2061 326.439 53.1357C326.576 54.0654 326.818 54.79 327.164 55.3096C327.51 55.8291 328.007 56.2575 328.654 56.5947C329.311 56.932 330.113 57.1006 331.061 57.1006C332.273 57.1006 333.357 56.8363 334.314 56.3076C335.271 55.779 335.923 55.1045 336.27 54.2842C336.625 53.4548 336.803 52.0557 336.803 50.0869V42.5811C336.803 41.4235 336.675 40.6989 336.42 40.4072C336.064 40.0062 335.536 39.8057 334.834 39.8057H334.137ZM346.756 49.1572V54.5576C346.756 55.7243 346.883 56.4489 347.139 56.7314C347.485 57.1325 348.009 57.333 348.711 57.333H349.422V57.8389H341.479V57.333H342.176C342.96 57.333 343.52 57.0778 343.857 56.5674C344.04 56.2848 344.131 55.6149 344.131 54.5576V42.5811C344.131 41.4144 344.008 40.6898 343.762 40.4072C343.406 40.0062 342.878 39.8057 342.176 39.8057H341.479V39.2998H348.273C349.932 39.2998 351.24 39.473 352.197 39.8193C353.154 40.1566 353.961 40.7308 354.617 41.542C355.273 42.3532 355.602 43.3148 355.602 44.4268C355.602 45.9398 355.1 47.1702 354.098 48.1182C353.104 49.0661 351.696 49.54 349.873 49.54C349.426 49.54 348.943 49.5081 348.424 49.4443C347.904 49.3805 347.348 49.2848 346.756 49.1572ZM346.756 48.3779C347.239 48.4691 347.667 48.5374 348.041 48.583C348.415 48.6286 348.734 48.6514 348.998 48.6514C349.946 48.6514 350.762 48.2868 351.445 47.5576C352.138 46.8193 352.484 45.8669 352.484 44.7002C352.484 43.8981 352.32 43.1553 351.992 42.4717C351.664 41.779 351.199 41.264 350.598 40.9268C349.996 40.5804 349.312 40.4072 348.547 40.4072C348.082 40.4072 347.485 40.4938 346.756 40.667V48.3779ZM356.982 55.1865C357.411 55.1865 357.771 55.3369 358.062 55.6377C358.354 55.9294 358.5 56.2848 358.5 56.7041C358.5 57.1234 358.35 57.4834 358.049 57.7842C357.757 58.0758 357.402 58.2217 356.982 58.2217C356.563 58.2217 356.203 58.0758 355.902 57.7842C355.611 57.4834 355.465 57.1234 355.465 56.7041C355.465 56.2757 355.611 55.9157 355.902 55.624C356.203 55.3324 356.563 55.1865 356.982 55.1865ZM376.123 57.333V57.8389H368.18V57.333H368.836C369.602 57.333 370.158 57.1097 370.504 56.6631C370.723 56.3714 370.832 55.6696 370.832 54.5576V42.5811C370.832 41.6423 370.773 41.0225 370.654 40.7217C370.563 40.4938 370.376 40.2979 370.094 40.1338C369.693 39.915 369.273 39.8057 368.836 39.8057H368.18V39.2998H376.123V39.8057H375.453C374.697 39.8057 374.145 40.029 373.799 40.4756C373.571 40.7673 373.457 41.4691 373.457 42.5811V54.5576C373.457 55.4964 373.516 56.1162 373.635 56.417C373.726 56.6449 373.917 56.8408 374.209 57.0049C374.601 57.2236 375.016 57.333 375.453 57.333H376.123ZM381.332 47.5986C382.799 45.8304 384.199 44.9463 385.529 44.9463C386.213 44.9463 386.801 45.1195 387.293 45.4658C387.785 45.8031 388.177 46.3636 388.469 47.1475C388.669 47.6943 388.77 48.5329 388.77 49.6631V55.0088C388.77 55.8018 388.833 56.3395 388.961 56.6221C389.061 56.8499 389.221 57.0277 389.439 57.1553C389.667 57.2829 390.082 57.3467 390.684 57.3467V57.8389H384.49V57.3467H384.75C385.333 57.3467 385.739 57.2601 385.967 57.0869C386.204 56.9046 386.368 56.6403 386.459 56.2939C386.495 56.1572 386.514 55.7288 386.514 55.0088V49.8818C386.514 48.7425 386.363 47.9176 386.062 47.4072C385.771 46.8877 385.274 46.6279 384.572 46.6279C383.488 46.6279 382.408 47.2204 381.332 48.4053V55.0088C381.332 55.8564 381.382 56.3805 381.482 56.5811C381.61 56.8454 381.783 57.0413 382.002 57.1689C382.23 57.2874 382.686 57.3467 383.369 57.3467V57.8389H377.176V57.3467H377.449C378.087 57.3467 378.516 57.1872 378.734 56.8682C378.962 56.54 379.076 55.9202 379.076 55.0088V50.3604C379.076 48.8564 379.04 47.9404 378.967 47.6123C378.903 47.2842 378.798 47.0609 378.652 46.9424C378.516 46.8239 378.329 46.7646 378.092 46.7646C377.837 46.7646 377.531 46.833 377.176 46.9697L376.971 46.4775L380.744 44.9463H381.332V47.5986ZM400.527 56.4307C399.917 57.0687 399.32 57.529 398.736 57.8115C398.153 58.085 397.524 58.2217 396.85 58.2217C395.482 58.2217 394.288 57.652 393.268 56.5127C392.247 55.3643 391.736 53.8923 391.736 52.0967C391.736 50.3011 392.301 48.6605 393.432 47.1748C394.562 45.68 396.016 44.9326 397.793 44.9326C398.896 44.9326 399.807 45.2835 400.527 45.9854V43.6748C400.527 42.2438 400.491 41.3643 400.418 41.0361C400.354 40.708 400.249 40.4847 400.104 40.3662C399.958 40.2477 399.775 40.1885 399.557 40.1885C399.32 40.1885 399.005 40.2614 398.613 40.4072L398.436 39.9287L402.168 38.3975H402.783V52.876C402.783 54.3434 402.815 55.2412 402.879 55.5693C402.952 55.8883 403.061 56.1117 403.207 56.2393C403.362 56.3669 403.54 56.4307 403.74 56.4307C403.986 56.4307 404.314 56.3532 404.725 56.1982L404.875 56.6768L401.156 58.2217H400.527V56.4307ZM400.527 55.4736V49.0205C400.473 48.4007 400.309 47.8356 400.035 47.3252C399.762 46.8148 399.397 46.432 398.941 46.1768C398.495 45.9124 398.057 45.7803 397.629 45.7803C396.827 45.7803 396.111 46.1403 395.482 46.8604C394.653 47.8083 394.238 49.1937 394.238 51.0166C394.238 52.8577 394.639 54.2705 395.441 55.2549C396.243 56.2301 397.137 56.7178 398.121 56.7178C398.951 56.7178 399.753 56.3031 400.527 55.4736ZM408.867 38.3975C409.25 38.3975 409.574 38.5342 409.838 38.8076C410.111 39.0719 410.248 39.3955 410.248 39.7783C410.248 40.1611 410.111 40.4893 409.838 40.7627C409.574 41.0361 409.25 41.1729 408.867 41.1729C408.484 41.1729 408.156 41.0361 407.883 40.7627C407.609 40.4893 407.473 40.1611 407.473 39.7783C407.473 39.3955 407.605 39.0719 407.869 38.8076C408.143 38.5342 408.475 38.3975 408.867 38.3975ZM410.002 44.9463V55.0088C410.002 55.7926 410.057 56.3167 410.166 56.5811C410.285 56.8363 410.453 57.0277 410.672 57.1553C410.9 57.2829 411.31 57.3467 411.902 57.3467V57.8389H405.818V57.3467C406.429 57.3467 406.839 57.2874 407.049 57.1689C407.258 57.0505 407.423 56.8545 407.541 56.5811C407.669 56.3076 407.732 55.7835 407.732 55.0088V50.1826C407.732 48.8245 407.691 47.945 407.609 47.5439C407.546 47.2523 407.445 47.0518 407.309 46.9424C407.172 46.8239 406.985 46.7646 406.748 46.7646C406.493 46.7646 406.183 46.833 405.818 46.9697L405.627 46.4775L409.4 44.9463H410.002ZM420.57 56.0342C419.285 57.0277 418.479 57.6019 418.15 57.7568C417.658 57.9847 417.134 58.0986 416.578 58.0986C415.712 58.0986 414.997 57.8024 414.432 57.21C413.876 56.6175 413.598 55.8382 413.598 54.8721C413.598 54.2614 413.734 53.7327 414.008 53.2861C414.382 52.6663 415.029 52.083 415.949 51.5361C416.879 50.9893 418.419 50.3239 420.57 49.54V49.0479C420.57 47.7992 420.37 46.9424 419.969 46.4775C419.577 46.0127 419.003 45.7803 418.246 45.7803C417.672 45.7803 417.216 45.9352 416.879 46.2451C416.533 46.555 416.359 46.9105 416.359 47.3115L416.387 48.1045C416.387 48.5238 416.277 48.8473 416.059 49.0752C415.849 49.3031 415.571 49.417 415.225 49.417C414.887 49.417 414.609 49.2985 414.391 49.0615C414.181 48.8245 414.076 48.501 414.076 48.0908C414.076 47.307 414.477 46.5869 415.279 45.9307C416.081 45.2744 417.207 44.9463 418.656 44.9463C419.768 44.9463 420.68 45.1331 421.391 45.5068C421.928 45.7894 422.325 46.2314 422.58 46.833C422.744 47.2249 422.826 48.027 422.826 49.2393V53.4912C422.826 54.6852 422.849 55.4189 422.895 55.6924C422.94 55.9567 423.013 56.1344 423.113 56.2256C423.223 56.3167 423.346 56.3623 423.482 56.3623C423.628 56.3623 423.756 56.3304 423.865 56.2666C424.057 56.1481 424.426 55.8154 424.973 55.2686V56.0342C423.952 57.4014 422.977 58.085 422.047 58.085C421.6 58.085 421.245 57.93 420.98 57.6201C420.716 57.3102 420.579 56.7816 420.57 56.0342ZM420.57 55.1455V50.374C419.194 50.9209 418.305 51.3083 417.904 51.5361C417.184 51.9372 416.669 52.3564 416.359 52.7939C416.049 53.2314 415.895 53.71 415.895 54.2295C415.895 54.8857 416.09 55.4326 416.482 55.8701C416.874 56.2985 417.326 56.5127 417.836 56.5127C418.529 56.5127 419.44 56.057 420.57 55.1455ZM428.541 55.1865C428.969 55.1865 429.329 55.3369 429.621 55.6377C429.913 55.9294 430.059 56.2848 430.059 56.7041C430.059 57.1234 429.908 57.4834 429.607 57.7842C429.316 58.0758 428.96 58.2217 428.541 58.2217C428.122 58.2217 427.762 58.0758 427.461 57.7842C427.169 57.4834 427.023 57.1234 427.023 56.7041C427.023 56.2757 427.169 55.9157 427.461 55.624C427.762 55.3324 428.122 55.1865 428.541 55.1865Z" fill="white"/>
<g clip-path="url(#clip0_425_302)">
<path d="M20.8097 12.3389C12.9645 12.3389 6.58203 18.7223 6.58203 26.5677C6.58203 34.1196 19.4911 51.7636 20.0407 52.5107L20.5537 53.2088C20.6137 53.2909 20.7092 53.3389 20.8097 53.3389C20.9118 53.3389 21.0067 53.2909 21.0673 53.2088L21.58 52.5107C22.1299 51.7636 35.0387 34.1196 35.0387 26.5677C35.0387 18.7223 28.6552 12.3389 20.8097 12.3389ZM20.8097 21.471C23.6207 21.471 25.9065 23.7568 25.9065 26.5677C25.9065 29.3771 23.6206 31.6644 20.8097 31.6644C18.0004 31.6644 15.713 29.3771 15.713 26.5677C15.713 23.7568 18.0003 21.471 20.8097 21.471Z" fill="#D24D8E"/>
</g>
<defs>
<clipPath id="clip0_425_302">
<rect width="41" height="41" fill="white" transform="translate(0.310547 12.3389)"/>
</clipPath>
</defs>
</svg>
