<svg width="63" height="62" viewBox="0 0 63 62" fill="none" xmlns="http://www.w3.org/2000/svg">
<g clip-path="url(#clip0_425_295)">
<path fill-rule="evenodd" clip-rule="evenodd" d="M31.3454 61.9998L31.3732 61.9999H31.3636L31.3454 61.9998ZM31.5641 61.9999H31.5546L31.5823 61.9998L31.5641 61.9999ZM31.2507 61.9993L31.2807 61.9994H31.2635L31.2507 61.9993ZM31.6643 61.9994H31.6471L31.677 61.9993L31.6643 61.9994ZM31.1594 61.9986L31.1794 61.9987L31.1634 61.9986H31.1594ZM31.7643 61.9986L31.7483 61.9987L31.7683 61.9986H31.7643ZM31.8643 61.9975L31.8573 61.9976L31.8843 61.9972L31.8643 61.9975ZM31.0434 61.9972L31.0704 61.9976L31.0634 61.9975L31.0434 61.9972ZM31.9642 61.996L31.9479 61.9963L31.9812 61.9958L31.9642 61.996ZM30.9466 61.9958L30.9799 61.9963L30.9635 61.996L30.9466 61.9958ZM32.064 61.9943L32.042 61.9947L32.0727 61.9941L32.064 61.9943ZM30.855 61.9941L30.8858 61.9947L30.8637 61.9943L30.855 61.9941ZM30.7415 61.9918L30.7688 61.9924L30.7639 61.9923L30.7415 61.9918ZM32.1638 61.9923L32.1589 61.9924L32.1862 61.9918L32.1638 61.9923ZM30.642 61.9892L30.6794 61.9902L30.6643 61.9898L30.642 61.9892ZM32.2634 61.9898L32.2483 61.9902L32.2857 61.9892L32.2634 61.9898ZM32.3631 61.9872L32.3388 61.9879L32.377 61.9868L32.3631 61.9872ZM30.5507 61.9868L30.589 61.9879L30.5646 61.9872L30.5507 61.9868ZM30.4635 61.9841L30.4908 61.985L30.4651 61.9841L30.4416 61.9834L30.4635 61.9841ZM32.4626 61.9841L32.437 61.985L32.4642 61.9841L32.4861 61.9834L32.4626 61.9841ZM32.5621 61.9809L32.5485 61.9814L32.5903 61.9799L32.5621 61.9809ZM30.3375 61.9799L30.3792 61.9814L30.3657 61.9809L30.3375 61.9799ZM30.2468 61.9765L30.2906 61.9781L30.2663 61.9772L30.2468 61.9765ZM32.6615 61.9772L32.6371 61.9781L32.681 61.9765L32.6615 61.9772ZM30.1578 61.9729L30.2006 61.9747L30.1671 61.9734L30.1578 61.9729ZM32.7607 61.9734L32.7271 61.9747L32.77 61.9729L32.7607 61.9734ZM30.033 61.9674L30.079 61.9695L30.0678 61.9691L30.033 61.9674ZM32.86 61.9691L32.8487 61.9695L32.8947 61.9674L32.86 61.9691ZM29.9435 61.9633L29.9912 61.9655L29.9687 61.9645L29.9435 61.9633ZM32.959 61.9645L32.9365 61.9655L32.9842 61.9633L32.959 61.9645ZM29.8554 61.9588L29.9035 61.9613L29.8697 61.9597L29.8554 61.9588ZM33.0581 61.9597L33.0243 61.9613L33.0724 61.9588L33.0581 61.9597ZM33.1571 61.9545L33.1133 61.9568L33.1522 61.9547L33.1979 61.9522L33.1571 61.9545ZM29.7756 61.9547L29.8144 61.9568L29.7706 61.9545L29.7298 61.9522L29.7756 61.9547ZM33.2559 61.9489L33.2366 61.95L33.2857 61.9472L33.2559 61.9489ZM29.642 61.9472L29.6912 61.95L29.6718 61.9489L29.642 61.9472ZM29.5546 61.942L29.6036 61.9449L29.573 61.9432L29.5546 61.942ZM33.3547 61.9432L33.3241 61.9449L33.3732 61.942L33.3547 61.9432ZM29.4711 61.9368L29.5153 61.9396L29.4742 61.937L29.4328 61.9344L29.4711 61.9368ZM33.4536 61.937L33.4124 61.9396L33.4566 61.9368L33.495 61.9344L33.4536 61.937ZM33.5521 61.9306L33.5374 61.9316L33.5842 61.9284L33.5521 61.9306ZM29.3435 61.9284L29.3904 61.9316L29.3756 61.9306L29.3435 61.9284ZM29.2562 61.9224L29.3022 61.9257L29.277 61.924L29.2562 61.9224ZM33.6507 61.924L33.6255 61.9257L33.6715 61.9224L33.6507 61.924ZM29.1691 61.9162L29.2114 61.9192L29.1786 61.9169L29.1691 61.9162ZM33.7491 61.9169L33.7163 61.9192L33.7586 61.9162L33.7491 61.9169ZM29.052 61.9074L29.0891 61.9102L29.0801 61.9095L29.052 61.9074ZM33.8476 61.9095L33.8386 61.9102L33.8757 61.9074L33.8476 61.9095ZM33.9458 61.9019L33.9281 61.9032L33.9658 61.9002L33.9458 61.9019ZM28.962 61.9002L28.9996 61.9032L28.9819 61.9019L28.962 61.9002ZM28.8742 61.8931L28.9061 61.8957L28.8836 61.8939L28.8742 61.8931ZM34.0441 61.8939L34.0216 61.8957L34.0536 61.8931L34.0441 61.8939ZM28.7775 61.885L28.7871 61.8858L28.7855 61.8857L28.7775 61.885ZM34.1422 61.8857L34.1406 61.8858L34.1502 61.885L34.1422 61.8857ZM34.2403 61.8771L34.2316 61.8778L34.2535 61.8759L34.2403 61.8771ZM28.6742 61.8759L28.6961 61.8778L28.6874 61.8771L28.6742 61.8759ZM28.5834 61.8676L28.5998 61.8692L28.5896 61.8683L28.5834 61.8676ZM34.3381 61.8683L34.328 61.8692L34.3443 61.8676L34.3381 61.8683ZM26.6201 61.623C11.8081 59.2949 0.463867 46.4617 0.463867 31C0.463867 13.8907 14.3545 0 31.4639 0C48.5732 0 62.4639 13.8907 62.4639 31C62.4639 46.4617 51.1197 59.2949 36.3076 61.623V39.9609H43.5309L44.9053 31H36.3076V25.185C36.3076 22.7334 37.5086 20.3438 41.3595 20.3438H45.2686V12.7148C45.2686 12.7148 41.721 12.1094 38.3293 12.1094C31.2482 12.1094 26.6201 16.4009 26.6201 24.1703V31H18.749V39.9609H26.6201V61.623Z" fill="#D24D8E"/>
</g>
<defs>
<clipPath id="clip0_425_295">
<rect width="62" height="62" fill="white" transform="translate(0.463867)"/>
</clipPath>
</defs>
</svg>
