<svg width="687" height="96" viewBox="0 0 687 96" fill="none" xmlns="http://www.w3.org/2000/svg">
<path d="M28.1697 78H0.731711C3.65571 75.076 5.11771 71.438 5.11771 67.086V13.23C5.11771 12.754 5.01571 12.21 4.81171 11.598C4.67571 10.918 4.33571 9.932 3.79171 8.64C3.24771 7.28 2.26171 5.92 0.833711 4.56H44.9997C47.9237 4.56 50.1677 4.39 51.7317 4.05C53.2957 3.71 54.9617 3.03 56.7297 2.00999L57.8517 6.294C59.7557 11.938 62.1697 17.038 65.0937 21.594L62.4417 22.104C60.7417 22.104 59.1437 22.002 57.6477 21.798C56.1517 21.526 54.4857 21.084 52.6497 20.472C50.8817 19.792 49.5557 19.248 48.6717 18.84C47.8557 18.432 45.7137 17.174 42.2457 15.066C38.7777 12.89 35.9897 11.394 33.8817 10.578C31.8417 9.762 29.0877 9.354 25.6197 9.354H23.5797V32.61L29.8017 32.916C35.9217 32.916 40.6817 32.508 44.0817 31.692C47.5497 30.808 50.5417 29.312 53.0577 27.204C54.9617 32.848 57.2737 38.458 59.9937 44.034L61.1157 46.38L62.2377 48.522L57.4437 49.44C56.3557 48.556 55.1997 47.774 53.9757 47.094C52.8197 46.346 51.6977 45.666 50.6097 45.054L50.2017 44.85L46.2237 43.116L42.4497 41.484L41.8377 41.178L40.2057 40.668C36.2617 39.58 32.9637 39.036 30.3117 39.036C29.2237 39.036 28.1017 39.138 26.9457 39.342C25.8577 39.478 24.7357 39.75 23.5797 40.158V69.942C23.5797 70.758 23.8177 71.744 24.2937 72.9C24.8377 74.056 25.6197 75.246 26.6397 76.47L28.1697 78ZM112.799 40.464C113.411 42.436 113.717 44.476 113.717 46.584C113.717 48.012 113.547 49.576 113.207 51.276H83.6266L84.6466 54.846C86.4146 59.606 89.2706 63.414 93.2146 66.27C97.2266 69.058 101.715 70.452 106.679 70.452C109.059 70.452 111.371 70.112 113.615 69.432L116.369 68.514C115.689 70.078 114.771 71.54 113.615 72.9C112.527 74.192 111.201 75.314 109.637 76.266C108.141 77.15 105.965 77.966 103.109 78.714C100.321 79.53 97.6346 79.938 95.0506 79.938C92.4666 79.938 89.4066 79.462 85.8706 78.51C82.4026 77.558 79.2746 75.994 76.4866 73.818C73.6986 71.642 71.5906 69.33 70.1626 66.882C68.7346 64.434 67.7486 61.68 67.2046 58.62C66.7286 55.56 66.4906 53.214 66.4906 51.582C66.4906 49.134 66.9326 46.244 67.8166 42.912C68.7006 39.512 70.1966 36.384 72.3046 33.528C74.4806 30.672 76.9286 28.53 79.6486 27.102C82.4366 25.606 84.9186 24.722 87.0946 24.45C89.2706 24.11 91.0386 23.94 92.3986 23.94C95.6626 23.94 98.7906 24.756 101.783 26.388C104.843 28.02 107.223 29.992 108.923 32.304C110.623 34.616 111.915 37.336 112.799 40.464ZM95.6626 45.564L95.7646 43.524C95.7646 42.028 95.4926 40.022 94.9486 37.506C94.4726 34.922 93.4526 33.188 91.8886 32.304C90.3246 31.42 89.2366 30.91 88.6246 30.774C88.0806 30.638 87.6046 30.57 87.1966 30.57C84.6126 30.57 82.9806 31.624 82.3006 33.732C81.6886 35.84 81.3826 37.914 81.3826 39.954C81.3826 40.498 81.4506 41.586 81.5866 43.218L81.8926 45.564H95.6626ZM119.49 6.906L118.47 5.988C119.286 5.988 120.204 5.954 121.224 5.886C122.312 5.75 123.604 5.58 125.1 5.376C126.664 5.172 128.67 4.696 131.118 3.948C133.634 3.132 136.082 2.112 138.462 0.887996V29.754L139.482 28.836C140.978 27.476 142.372 26.456 143.664 25.776C145.024 25.028 146.248 24.552 147.336 24.348C148.492 24.144 149.376 24.008 149.988 23.94C150.6 23.804 151.314 23.736 152.13 23.736C154.782 23.736 157.162 24.382 159.27 25.674C161.378 26.966 163.282 28.87 164.982 31.386C166.75 33.902 167.974 36.316 168.654 38.628C169.334 40.94 169.674 43.762 169.674 47.094C169.674 48.386 169.674 49.678 169.674 50.97C169.47 52.194 169.266 53.792 169.062 55.764C168.858 57.668 168.178 60.116 167.022 63.108C165.866 66.032 164.166 68.956 161.922 71.88C159.746 74.804 157.162 76.912 154.17 78.204C151.178 79.564 147.438 80.244 142.95 80.244C140.638 80.244 137.884 79.632 134.688 78.408C131.492 77.252 129.35 76.674 128.262 76.674C127.99 76.674 127.072 76.776 125.508 76.98C124.012 77.116 122.38 77.864 120.612 79.224C121.292 75.824 121.632 72.254 121.632 68.514V10.782C121.632 9.694 120.918 8.402 119.49 6.906ZM138.462 70.86C138.462 71.88 138.938 72.798 139.89 73.614C140.842 74.362 141.998 74.736 143.358 74.736C143.834 74.736 144.446 74.668 145.194 74.532C145.942 74.328 146.69 73.41 147.438 71.778C148.186 70.146 148.832 67.97 149.376 65.25C149.988 62.53 150.396 60.388 150.6 58.824C150.804 57.26 150.906 55.39 150.906 53.214L150.702 48.318C150.702 43.422 150.09 39.818 148.866 37.506C147.71 35.126 146.588 33.834 145.5 33.63C144.412 33.358 143.732 33.222 143.46 33.222C143.256 33.222 143.12 33.222 143.052 33.222C141.692 33.222 140.57 33.63 139.686 34.446C138.87 35.194 138.462 36.112 138.462 37.2V70.86ZM175.293 31.488L173.355 29.448L178.353 27.918L183.453 26.286L188.655 24.654L193.857 22.92V32.61L195.387 30.468C197.359 27.952 199.025 26.252 200.385 25.368C201.813 24.416 203.071 23.872 204.159 23.736C205.315 23.532 206.233 23.43 206.913 23.43C209.701 23.43 211.911 24.348 213.543 26.184C215.243 27.952 216.093 30.332 216.093 33.324C216.093 35.976 215.413 38.05 214.053 39.546C212.693 40.974 210.891 41.688 208.647 41.688C207.083 41.688 205.417 41.314 203.649 40.566C201.881 39.75 200.419 38.696 199.263 37.404C198.379 37.268 197.461 37.506 196.509 38.118C195.557 38.73 194.673 39.41 193.857 40.158V71.676C193.857 73.512 194.367 74.94 195.387 75.96C196.407 76.98 197.223 77.66 197.835 78H173.355L174.783 76.47C176.211 74.498 176.925 72.696 176.925 71.064V36.384C176.925 34.616 176.381 32.984 175.293 31.488ZM217.413 29.04L216.087 28.02C217.719 28.02 219.419 27.884 221.187 27.612C223.023 27.34 224.825 27 226.593 26.592C228.429 26.184 230.163 25.674 231.795 25.062C233.495 24.45 235.161 23.736 236.793 22.92V65.76C236.793 67.052 237.303 68.14 238.323 69.024C239.343 69.908 240.533 70.35 241.893 70.35C243.117 70.35 244.171 69.874 245.055 68.922C245.939 67.97 246.381 66.916 246.381 65.76V33.732C246.381 33.46 246.313 33.154 246.177 32.814C246.041 32.474 245.701 31.828 245.157 30.876C244.613 29.856 243.729 28.904 242.505 28.02C245.497 28.02 248.863 27.476 252.603 26.388C256.411 25.232 259.947 24.076 263.211 22.92V70.35C263.211 72.322 263.959 74.362 265.455 76.47L266.883 78H246.381V74.022C245.905 74.43 245.463 74.804 245.055 75.144C244.715 75.484 243.831 76.13 242.403 77.082C240.975 78.034 239.173 78.748 236.997 79.224C234.821 79.768 232.951 80.04 231.387 80.04C223.771 80.04 219.963 75.28 219.963 65.76L219.861 63.312V33.528C219.861 32.78 219.657 32.066 219.249 31.386C218.909 30.638 218.297 29.856 217.413 29.04ZM294.665 40.872L296.909 40.26L296.501 37.608C295.889 34.276 293.509 32.61 289.361 32.61C287.525 32.61 285.519 32.984 283.343 33.732C281.235 34.412 278.855 35.602 276.203 37.302L274.367 38.424C274.639 36.248 275.353 34.276 276.509 32.508C277.665 30.74 279.127 29.244 280.895 28.02C282.663 26.796 284.159 25.946 285.383 25.47C286.607 24.926 288.341 24.416 290.585 23.94C292.829 23.396 295.073 23.124 297.317 23.124C302.281 23.124 306.157 24.552 308.945 27.408C311.733 30.264 313.467 34.446 314.147 39.954L317.819 71.37C317.955 72.458 318.363 73.614 319.043 74.838C319.791 76.062 320.743 77.116 321.899 78H301.601L301.193 75.042C300.513 75.45 299.901 75.824 299.357 76.164C298.881 76.504 297.453 77.15 295.073 78.102C292.761 79.054 289.973 79.53 286.709 79.53C282.833 79.53 279.501 78.476 276.713 76.368C273.993 74.192 272.293 71.778 271.613 69.126C270.933 66.474 270.593 64.434 270.593 63.006C270.593 60.218 271.171 57.77 272.327 55.662C273.551 53.554 274.945 51.752 276.509 50.256C278.073 48.692 279.841 47.298 281.813 46.074C283.785 44.85 285.655 43.898 287.423 43.218C289.259 42.47 291.673 41.688 294.665 40.872ZM297.419 43.932C295.651 45.02 294.189 46.244 293.033 47.604C291.945 48.964 290.891 50.8 289.871 53.112C288.919 55.424 288.443 57.532 288.443 59.436C288.375 59.844 288.341 60.286 288.341 60.762C288.341 61.238 288.341 61.578 288.341 61.782C288.341 64.978 289.021 67.596 290.381 69.636C291.809 71.676 293.679 72.696 295.991 72.696C297.963 72.696 299.527 71.88 300.683 70.248L297.419 43.932ZM323.81 31.488L321.872 29.448L326.87 27.918L331.97 26.286L337.172 24.654L342.374 22.92V32.61L343.904 30.468C345.876 27.952 347.542 26.252 348.902 25.368C350.33 24.416 351.588 23.872 352.676 23.736C353.832 23.532 354.75 23.43 355.43 23.43C358.218 23.43 360.428 24.348 362.06 26.184C363.76 27.952 364.61 30.332 364.61 33.324C364.61 35.976 363.93 38.05 362.57 39.546C361.21 40.974 359.408 41.688 357.164 41.688C355.6 41.688 353.934 41.314 352.166 40.566C350.398 39.75 348.936 38.696 347.78 37.404C346.896 37.268 345.978 37.506 345.026 38.118C344.074 38.73 343.19 39.41 342.374 40.158V71.676C342.374 73.512 342.884 74.94 343.904 75.96C344.924 76.98 345.74 77.66 346.352 78H321.872L323.3 76.47C324.728 74.498 325.442 72.696 325.442 71.064V36.384C325.442 34.616 324.898 32.984 323.81 31.488ZM362.973 29.55L361.749 28.428L366.543 27.102L380.619 22.716C380.959 24.144 381.163 25.096 381.231 25.572C381.367 25.98 381.639 26.694 382.047 27.714L384.801 33.528L394.899 56.784L399.897 41.586C400.373 39.886 400.611 38.186 400.611 36.486C400.611 35.942 400.543 35.33 400.407 34.65C400.339 33.97 400.135 32.848 399.795 31.284C399.523 29.72 398.469 27.918 396.633 25.878H415.911L413.871 30.06C411.151 35.772 409.485 39.274 408.873 40.566C408.329 41.858 407.309 44.204 405.813 47.604L391.839 83.406C390.615 86.466 388.609 89.322 385.821 91.974C383.101 94.626 379.769 95.952 375.825 95.952C374.465 95.952 373.003 95.714 371.439 95.238C369.875 94.762 368.481 94.048 367.257 93.096C366.033 92.144 365.183 91.056 364.707 89.832C364.231 88.608 363.993 87.452 363.993 86.364C363.993 84.256 364.673 82.488 366.033 81.06C367.461 79.7 369.297 79.02 371.541 79.02C373.581 79.02 375.621 79.598 377.661 80.754L378.579 81.366L380.313 82.59L380.619 82.896C380.959 83.1 381.333 83.202 381.741 83.202C382.081 83.202 382.557 83.066 383.169 82.794C383.781 82.522 384.291 82.012 384.699 81.264C385.107 80.516 385.379 79.836 385.515 79.224C385.719 78.612 385.753 78.102 385.617 77.694L366.339 34.038C365.727 32.678 364.605 31.182 362.973 29.55ZM493.836 78H445.284L451.2 72.594C461.808 62.734 469.254 54.302 473.538 47.298C477.822 40.226 479.964 33.426 479.964 26.898C479.964 21.798 479.216 18.058 477.72 15.678C476.224 13.23 474.252 12.006 471.804 12.006C469.968 12.006 468.404 12.55 467.112 13.638C465.82 14.658 465.072 15.644 464.868 16.596C464.732 17.48 464.664 18.296 464.664 19.044C464.664 19.588 464.732 20.302 464.868 21.186C465.072 22.07 465.276 23.056 465.48 24.144C465.752 25.164 465.888 25.912 465.888 26.388C465.888 27.068 465.718 27.986 465.378 29.142L464.766 30.672C462.726 34.208 460.074 35.976 456.81 35.976C455.586 35.976 453.512 35.5 450.588 34.548C447.732 33.596 446.304 30.536 446.304 25.368C446.304 24.416 446.542 22.682 447.018 20.166C447.494 17.65 449.296 15.338 452.424 13.23C455.552 11.122 458.306 9.66 460.686 8.844C463.066 8.02799 465.82 7.61999 468.948 7.61999C478.876 7.61999 486.492 9.45599 491.796 13.128C497.168 16.8 499.854 21.968 499.854 28.632C499.854 31.964 499.242 34.956 498.018 37.608C496.862 40.192 494.89 42.81 492.102 45.462L489.042 48.012L469.662 62.394L489.552 62.292C490.436 62.292 491.558 62.122 492.918 61.782C494.278 61.374 496.046 60.728 498.222 59.844L500.364 58.722C498.052 63.686 496.216 68.752 494.856 73.92L493.836 78ZM508.275 44.034L508.377 40.158C508.377 37.778 508.479 35.84 508.683 34.344C508.955 32.848 509.567 30.672 510.519 27.816C511.471 24.96 512.389 22.682 513.273 20.982C514.157 19.214 516.435 16.324 520.107 12.312C523.779 8.3 529.083 6.294 536.019 6.294C536.903 6.294 537.651 6.328 538.263 6.396C538.875 6.464 540.643 6.77 543.567 7.314C546.491 7.79 549.585 9.49 552.849 12.414C556.181 15.27 558.629 18.704 560.193 22.716C561.757 26.66 562.777 29.754 563.253 31.998C563.729 34.242 563.967 36.792 563.967 39.648C563.967 47.264 563.117 53.69 561.417 58.926C559.717 64.094 556.589 68.786 552.033 73.002C547.545 77.15 542.309 79.224 536.325 79.224C531.633 79.224 527.417 78 523.677 75.552C519.937 73.036 517.149 70.554 515.313 68.106C513.545 65.59 512.117 62.802 511.029 59.742C509.941 56.614 509.193 53.962 508.785 51.786C508.445 49.61 508.275 47.026 508.275 44.034ZM515.925 29.856C515.857 30.264 515.823 30.876 515.823 31.692C515.823 33.732 516.231 35.908 517.047 38.22C517.931 40.532 519.257 43.082 521.025 45.87C522.861 48.658 525.037 51.446 527.553 54.234C530.069 57.022 532.415 59.198 534.591 60.762C536.835 62.326 539.011 63.414 541.119 64.026C543.295 64.57 545.063 64.842 546.423 64.842C549.755 64.842 552.373 63.72 554.277 61.476C556.181 59.232 557.133 56.24 557.133 52.5C557.133 49.984 556.691 47.706 555.807 45.666C554.991 43.626 553.495 41.008 551.319 37.812C549.211 34.548 547.137 31.862 545.097 29.754C543.125 27.578 540.405 25.3 536.937 22.92C533.469 20.472 529.865 19.248 526.125 19.248C521.501 19.248 518.679 20.71 517.659 23.634C516.639 26.558 516.061 28.632 515.925 29.856ZM616.754 78H568.202L574.118 72.594C584.726 62.734 592.172 54.302 596.456 47.298C600.74 40.226 602.882 33.426 602.882 26.898C602.882 21.798 602.134 18.058 600.638 15.678C599.142 13.23 597.17 12.006 594.722 12.006C592.886 12.006 591.322 12.55 590.03 13.638C588.738 14.658 587.99 15.644 587.786 16.596C587.65 17.48 587.582 18.296 587.582 19.044C587.582 19.588 587.65 20.302 587.786 21.186C587.99 22.07 588.194 23.056 588.398 24.144C588.67 25.164 588.806 25.912 588.806 26.388C588.806 27.068 588.636 27.986 588.296 29.142L587.684 30.672C585.644 34.208 582.992 35.976 579.728 35.976C578.504 35.976 576.43 35.5 573.506 34.548C570.65 33.596 569.222 30.536 569.222 25.368C569.222 24.416 569.46 22.682 569.936 20.166C570.412 17.65 572.214 15.338 575.342 13.23C578.47 11.122 581.224 9.66 583.604 8.844C585.984 8.02799 588.738 7.61999 591.866 7.61999C601.794 7.61999 609.41 9.45599 614.714 13.128C620.086 16.8 622.772 21.968 622.772 28.632C622.772 31.964 622.16 34.956 620.936 37.608C619.78 40.192 617.808 42.81 615.02 45.462L611.96 48.012L592.58 62.394L612.47 62.292C613.354 62.292 614.476 62.122 615.836 61.782C617.196 61.374 618.964 60.728 621.14 59.844L623.282 58.722C620.97 63.686 619.134 68.752 617.774 73.92L616.754 78ZM632.723 73.614L631.295 72.9L631.805 70.86L634.355 71.472C637.279 72.22 640.067 72.594 642.719 72.594C643.263 72.594 643.807 72.594 644.351 72.594C645.031 72.458 646.833 72.254 649.757 71.982C652.749 71.642 655.843 69.976 659.039 66.984C662.303 63.992 664.071 61.204 664.343 58.62C664.683 55.968 664.853 54.472 664.853 54.132C664.853 53.724 664.853 53.452 664.853 53.316C664.853 49.168 663.561 45.836 660.977 43.32C658.461 40.736 655.027 39.444 650.675 39.444C649.383 39.444 647.411 39.716 644.759 40.26C642.107 40.736 639.081 41.892 635.681 43.728L632.723 45.564L645.473 7.008L648.023 7.824C655.367 9.728 661.759 10.68 667.199 10.68C672.503 10.68 677.569 9.762 682.397 7.926C681.785 10.85 680.527 13.57 678.623 16.086C676.787 18.602 674.543 20.54 671.891 21.9C669.239 23.192 666.383 24.076 663.323 24.552C660.331 24.96 657.951 25.164 656.183 25.164C653.259 25.164 650.097 24.858 646.697 24.246L644.351 23.634L640.271 36.792L644.147 35.568L647.513 34.65L648.227 34.446C649.927 34.106 651.117 33.902 651.797 33.834C652.545 33.698 653.531 33.63 654.755 33.63H660.773C663.289 33.63 665.397 33.834 667.097 34.242C668.797 34.65 671.279 35.534 674.543 36.894C677.807 38.254 680.663 40.634 683.111 44.034C685.559 47.434 686.783 51.106 686.783 55.05C686.783 59.946 685.287 64.128 682.295 67.596C679.303 70.996 676.413 73.478 673.625 75.042C670.905 76.538 667.913 77.592 664.649 78.204C661.385 78.884 657.509 79.224 653.021 79.224C647.785 79.224 642.549 78.068 637.313 75.756L635.681 75.042L634.253 74.43L632.723 73.614Z" fill="url(#paint0_linear_425_183)"/>
<defs>
<linearGradient id="paint0_linear_425_183" x1="-81.4302" y1="-58.3481" x2="816.085" y2="111.45" gradientUnits="userSpaceOnUse">
<stop stop-color="#D24D8E"/>
<stop offset="1" stop-color="#CDCDCD"/>
</linearGradient>
</defs>
</svg>
