<svg width="888" height="278" viewBox="0 0 888 278" fill="none" xmlns="http://www.w3.org/2000/svg">
<path d="M47.0731 89.902C47.0731 83.242 44.8531 78.136 40.4131 74.584C47.3691 73.252 55.1391 70.884 63.7231 67.48C72.4551 63.928 80.5211 60.45 87.9211 57.046V196.684C87.9211 200.532 88.9571 204.972 91.0291 210.004L92.8051 214H42.6331L45.5191 204.676L47.0731 196.018V89.902ZM143.546 204.454L140.438 202.9L141.548 198.46L147.098 199.792C153.462 201.42 159.53 202.234 165.302 202.234C166.486 202.234 167.67 202.234 168.854 202.234C170.334 201.938 174.256 201.494 180.62 200.902C187.132 200.162 193.866 196.536 200.822 190.024C207.926 183.512 211.774 177.444 212.366 171.82C213.106 166.048 213.476 162.792 213.476 162.052C213.476 161.164 213.476 160.572 213.476 160.276C213.476 151.248 210.664 143.996 205.04 138.52C199.564 132.896 192.09 130.084 182.618 130.084C179.806 130.084 175.514 130.676 169.742 131.86C163.97 132.896 157.384 135.412 149.984 139.408L143.546 143.404L171.296 59.488L176.846 61.264C192.83 65.408 206.742 67.48 218.582 67.48C230.126 67.48 241.152 65.482 251.66 61.486C250.328 67.85 247.59 73.77 243.446 79.246C239.45 84.722 234.566 88.94 228.794 91.9C223.022 94.712 216.806 96.636 210.146 97.672C203.634 98.56 198.454 99.004 194.606 99.004C188.242 99.004 181.36 98.338 173.96 97.006L168.854 95.674L159.974 124.312L168.41 121.648L175.736 119.65L177.29 119.206C180.99 118.466 183.58 118.022 185.06 117.874C186.688 117.578 188.834 117.43 191.498 117.43H204.596C210.072 117.43 214.66 117.874 218.36 118.762C222.06 119.65 227.462 121.574 234.566 124.534C241.67 127.494 247.886 132.674 253.214 140.074C258.542 147.474 261.206 155.466 261.206 164.05C261.206 174.706 257.95 183.808 251.438 191.356C244.926 198.756 238.636 204.158 232.568 207.562C226.648 210.818 220.136 213.112 213.032 214.444C205.928 215.924 197.492 216.664 187.724 216.664C176.328 216.664 164.932 214.148 153.536 209.116L149.984 207.562L146.876 206.23L143.546 204.454Z" fill="url(#paint0_linear_425_210)"/>
<path d="M356.965 84.902C356.965 78.242 354.745 73.136 350.305 69.584C357.261 68.252 365.031 65.884 373.615 62.48C382.347 58.928 390.413 55.45 397.813 52.046V191.684C397.813 195.532 398.849 199.972 400.921 205.004L402.697 209H352.525L355.411 199.676L356.965 191.018V84.902ZM523.59 45.164L528.918 43.388L530.916 46.94L526.698 49.382C515.006 56.338 506.274 63.072 500.502 69.584C494.878 75.948 490.66 83.348 487.848 91.784C485.184 100.072 483.852 107.768 483.852 114.872C483.852 122.42 484.962 130.56 487.182 139.292C489.55 147.876 491.918 154.832 494.286 160.16C496.802 165.34 499.688 170.224 502.944 174.812C506.2 179.252 509.752 183.174 513.6 186.578C517.596 189.834 521.222 192.202 524.478 193.682C527.882 195.162 530.916 195.902 533.58 195.902C537.428 195.902 540.684 194.644 543.348 192.128C546.16 189.464 547.788 186.504 548.232 183.248C548.676 179.844 548.898 177.55 548.898 176.366C548.898 173.554 548.084 168.448 546.456 161.048C544.976 153.648 541.202 146.988 535.134 141.068C529.214 135.148 523.146 131.004 516.93 128.636C510.862 126.12 504.424 124.862 497.616 124.862L493.842 118.646C499.466 116.278 506.496 112.874 514.932 108.434C523.368 103.994 531.138 99.85 538.242 96.002L544.236 98.666C549.712 101.478 554.448 105.252 558.444 109.988C562.44 114.576 565.992 120.644 569.1 128.192C572.208 135.74 573.762 143.288 573.762 150.836V153.944C573.762 154.832 573.762 155.72 573.762 156.608C573.466 157.792 572.948 161.64 572.208 168.152C571.616 174.664 568.582 181.842 563.106 189.686C557.778 197.382 550.526 203.228 541.35 207.224C532.174 211.22 523.368 213.218 514.932 213.218C513.156 213.218 511.38 213.218 509.604 213.218C507.088 212.774 501.02 211.812 491.4 210.332C481.928 209 473.492 203.376 466.092 193.46C458.692 183.544 453.808 175.256 451.44 168.596C449.072 161.936 447.888 154.462 447.888 146.174V132.41C447.888 125.75 448.628 119.682 450.108 114.206C451.736 108.582 454.77 101.33 459.21 92.45C463.65 83.422 469.94 75.652 478.08 69.14C486.368 62.48 493.324 57.744 498.948 54.932C504.572 52.12 512.786 48.864 523.59 45.164Z" fill="url(#paint1_linear_425_210)"/>
<path d="M666.965 84.902C666.965 78.242 664.745 73.136 660.305 69.584C667.261 68.252 675.031 65.884 683.615 62.48C692.347 58.928 700.413 55.45 707.813 52.046V191.684C707.813 195.532 708.849 199.972 710.921 205.004L712.697 209H662.525L665.411 199.676L666.965 191.018V84.902ZM764.326 103.328L760.774 105.104L762.55 99.998L764.326 94.67C766.546 87.862 768.544 81.35 770.32 75.134C772.244 68.918 774.02 62.702 775.648 56.486L876.436 56.93C876.436 62.258 875.252 67.216 872.884 71.804C870.516 76.392 865.188 84.384 856.9 95.78L853.57 100.442L843.136 113.54L841.36 115.76C839.436 117.832 837.66 121.162 836.032 125.75C834.404 130.338 833.59 136.184 833.59 143.288L834.034 148.838L840.25 170.594C840.99 173.11 841.508 175.552 841.804 177.92C842.248 180.288 842.544 181.916 842.692 182.804C842.84 183.544 842.914 184.728 842.914 186.356C842.914 194.2 840.398 200.638 835.366 205.67C830.482 210.554 824.192 212.996 816.496 212.996C814.424 212.996 811.316 212.552 807.172 211.664C803.028 210.924 799.624 209.296 796.96 206.78C794.444 204.116 792.594 200.564 791.41 196.124C790.226 191.684 789.486 188.502 789.19 186.578C788.894 184.506 788.746 182.434 788.746 180.362C788.746 174.738 789.634 168.966 791.41 163.046C793.334 156.978 796.294 150.466 800.29 143.51C804.434 136.406 808.282 131.078 811.834 127.526L846.466 93.338L790.3 93.782C788.376 93.782 786.304 94.152 784.084 94.892C781.864 95.484 778.904 96.594 775.204 98.222L770.764 100.22L764.326 103.328Z" fill="url(#paint2_linear_425_210)"/>
<line y1="-2" x2="203.021" y2="-2" transform="matrix(0.014486 0.999895 -0.999954 0.00962856 617 35)" stroke="url(#paint3_linear_425_210)" stroke-width="4"/>
<line y1="-2" x2="203.021" y2="-2" transform="matrix(0.014486 0.999895 -0.999954 0.00962856 295 35)" stroke="url(#paint4_linear_425_210)" stroke-width="4"/>
<defs>
<linearGradient id="paint0_linear_425_210" x1="-31.1943" y1="-83.1202" x2="328.954" y2="-71.0205" gradientUnits="userSpaceOnUse">
<stop stop-color="#D24D8E"/>
<stop offset="1" stop-color="#CDCDCD"/>
</linearGradient>
<linearGradient id="paint1_linear_425_210" x1="278.806" y1="-88.1202" x2="638.954" y2="-76.0205" gradientUnits="userSpaceOnUse">
<stop stop-color="#D24D8E"/>
<stop offset="1" stop-color="#CDCDCD"/>
</linearGradient>
<linearGradient id="paint2_linear_425_210" x1="588.806" y1="-88.1202" x2="948.954" y2="-76.0205" gradientUnits="userSpaceOnUse">
<stop stop-color="#D24D8E"/>
<stop offset="1" stop-color="#CDCDCD"/>
</linearGradient>
<linearGradient id="paint3_linear_425_210" x1="0" y1="0.5" x2="203.021" y2="0.5" gradientUnits="userSpaceOnUse">
<stop stop-color="#D24D8E"/>
<stop offset="1" stop-color="#BDC7FC"/>
</linearGradient>
<linearGradient id="paint4_linear_425_210" x1="0" y1="0.5" x2="203.021" y2="0.5" gradientUnits="userSpaceOnUse">
<stop stop-color="#D24D8E"/>
<stop offset="1" stop-color="#BDC7FC"/>
</linearGradient>
</defs>
</svg>
